<svg width="44" height="43" viewBox="0 0 44 43" fill="none" xmlns="http://www.w3.org/2000/svg">
<g clip-path="url(#clip0_2_1086)">
<path d="M22.25 0C10.3767 0 0.75 9.62668 0.75 21.5C0.75 33.3733 10.3767 43 22.25 43C34.1233 43 43.75 33.3757 43.75 21.5C43.75 9.62425 34.1233 0 22.25 0ZM17.8736 25.8813L15.6975 28.0573C14.0156 26.3851 12.9787 24.0679 12.9787 21.5049C12.9787 16.4031 17.1312 12.2336 22.25 12.2336C24.8131 12.2336 27.1278 13.2802 28.8025 14.9524C30.4844 16.6343 31.5213 18.9588 31.5213 21.5049H28.4301C28.4301 19.7986 27.7388 18.2578 26.6264 17.1455H26.6094C25.48 16.0161 23.9465 15.3248 22.25 15.3248C18.8375 15.3248 16.0675 18.1094 16.0675 21.5049C16.0675 23.2038 16.7612 24.7519 17.8736 25.8813ZM33.0621 35.4009C33.0621 36.265 32.3635 36.9489 31.514 36.9489H19.1514C18.6403 36.9489 18.1949 36.7201 17.9149 36.3307C17.7251 36.0922 17.601 35.7636 17.601 35.4082V32.351C17.601 31.4455 18.005 30.6204 18.6403 30.0508C19.1758 29.5567 19.9011 29.2598 20.6922 29.2598V21.5122C20.6922 20.6554 21.3932 19.9641 22.2427 19.9641C23.0922 19.9641 23.7908 20.6651 23.7908 21.5122V26.1442C23.7908 25.2874 24.4918 24.5961 25.3412 24.5961C26.0325 24.5961 26.6094 25.0415 26.8065 25.6744C26.8479 25.8156 26.882 25.9811 26.882 26.1369V27.6874C26.882 26.8281 27.583 26.1369 28.4301 26.1369C28.9996 26.1369 29.4937 26.4509 29.7591 26.9109C29.8978 27.1421 29.9733 27.405 29.9733 27.6874V29.2354C29.9733 28.3786 30.6718 27.6874 31.5213 27.6874C31.9667 27.6874 32.3708 27.8748 32.6434 28.1644C32.9063 28.4444 33.0621 28.8143 33.0621 29.2184V35.4009ZM34.6126 21.5049C34.6126 18.1094 33.2203 15.0181 30.9785 12.7764C28.7441 10.5346 25.6528 9.14231 22.25 9.14231C15.4346 9.14231 9.88744 14.6895 9.88744 21.5049C9.88744 24.9174 11.2797 27.9916 13.5142 30.2407V30.2577L11.3211 32.4338C8.5268 29.6322 6.79619 25.7742 6.79619 21.5049C6.79619 12.9735 13.7186 6.05106 22.25 6.05106C26.5193 6.05106 30.3773 7.78167 33.1789 10.576C35.9732 13.3776 37.7038 17.2428 37.7038 21.5049H34.6126Z" fill="#39FFFF"/>
</g>
<defs>
<clipPath id="clip0_2_1086">
<rect width="43" height="43" fill="white" transform="translate(0.75)"/>
</clipPath>
</defs>
</svg>
