<svg width="45" height="44" viewBox="0 0 45 44" fill="none" xmlns="http://www.w3.org/2000/svg">
<g clip-path="url(#clip0_123_2207)">
<path d="M22.4999 0.24707C10.491 0.24707 0.758789 9.87187 0.758789 21.7459C0.758789 33.6198 10.491 43.2471 22.4999 43.2471C34.5088 43.2471 44.241 33.6223 44.241 21.7459C44.241 9.86943 34.5063 0.24707 22.4999 0.24707ZM10.1193 16.6779C10.1193 11.1985 14.6088 6.75853 20.1468 6.75853V10.1859H21.0403C22.1233 10.1859 23.002 11.0549 23.002 12.1259C23.002 13.197 22.1233 14.0684 21.0403 14.0684H20.1468V17.4933H10.1538C10.1316 17.2256 10.1193 16.9529 10.1193 16.6779ZM17.016 25.9838C15.805 24.4868 15.0223 22.6343 14.8549 20.6115H23.0734V22.386C21.439 22.7804 20.2207 24.2409 20.2207 25.9789C20.2207 27.7169 21.439 29.1774 23.0734 29.5718V31.1151H19.3174C19.022 29.2456 18.2245 27.4784 17.016 25.9838ZM30.258 36.7356H19.4429V32.8823L30.258 32.8725V36.7356ZM32.6849 25.9838C31.4764 27.4784 30.6765 29.2456 30.3836 31.1151H24.8505V27.9214H23.9595C22.874 27.9214 21.9953 27.0524 21.9953 25.9789C21.9953 24.9054 22.874 24.0389 23.9595 24.0389H24.8505V20.6115H34.846C34.6786 22.6343 33.8959 24.4868 32.6849 25.9838ZM34.846 18.854H24.8505V15.4364H25.7415C26.8269 15.4364 27.7056 14.5674 27.7056 13.4964C27.7056 12.4253 26.8269 11.5539 25.7415 11.5539H24.8505V8.12655C30.3934 8.12655 34.8657 12.5422 34.878 18.024C34.8805 18.3039 34.8682 18.5814 34.846 18.854Z" fill="#39FFFF"/>
</g>
<defs>
<clipPath id="clip0_123_2207">
<rect width="43.4822" height="43" fill="white" transform="translate(0.758789 0.24707)"/>
</clipPath>
</defs>
</svg>
