<svg width="44" height="44" viewBox="0 0 44 44" fill="none" xmlns="http://www.w3.org/2000/svg">
<g clip-path="url(#clip0_123_3659)">
<path d="M21.7399 0.943359C9.73408 0.943359 0 10.57 0 22.4434C0 34.3167 9.73408 43.9434 21.7399 43.9434C33.7456 43.9434 43.4797 34.3167 43.4797 22.4434C43.4797 10.57 33.7456 0.943359 21.7399 0.943359ZM15.9536 35.4826C15.9536 33.5767 16.9134 31.795 18.5132 30.7337C18.5157 30.7313 18.5181 30.7313 18.5181 30.7313C18.6683 30.6339 18.8676 30.6753 18.9661 30.8238L21.7399 35.0006L24.5136 30.8238L24.5161 30.8189C24.617 30.6729 24.8188 30.6339 24.9665 30.7337C26.5663 31.795 27.5262 33.5767 27.5262 35.4826C27.5262 38.6444 15.9536 38.6444 15.9536 35.4826ZM15.4859 21.8081L14.5211 21.0219C14.4916 21 14.4744 20.9659 14.4744 20.9318C14.4694 20.8612 14.5236 20.8004 14.595 20.7955L15.8428 20.72C15.8945 20.7176 15.9388 20.686 15.956 20.6373L16.4138 19.4884C16.4286 19.4543 16.4532 19.4276 16.4876 19.4154C16.5541 19.3886 16.6304 19.4203 16.655 19.4884L17.1152 20.6373C17.1325 20.686 17.1768 20.7176 17.2285 20.72L18.4763 20.7955C18.5107 20.7979 18.5452 20.8125 18.5674 20.8418C18.6141 20.8953 18.6043 20.9756 18.5501 21.0219L17.5853 21.8081C17.546 21.8397 17.5287 21.8908 17.541 21.9395L17.8561 23.1371C17.8635 23.1711 17.8585 23.2077 17.8388 23.2393C17.7995 23.2977 17.7207 23.3148 17.6592 23.2782L16.6058 22.6137C16.5615 22.5845 16.5073 22.5845 16.4655 22.6137L15.4096 23.2782C15.3801 23.2953 15.3432 23.3026 15.3087 23.2928C15.2398 23.2758 15.198 23.2052 15.2152 23.1371L15.5278 21.9395C15.5425 21.8908 15.5253 21.8397 15.4859 21.8081ZM23.0591 19.1452C23.0689 19.1793 23.0615 19.2158 23.0443 19.245C23.0049 19.3059 22.9237 19.3229 22.8646 19.284L21.8088 18.6195C21.7669 18.5927 21.7128 18.5927 21.6709 18.6195L20.6151 19.284C20.5855 19.3034 20.5486 19.3107 20.5142 19.301C20.4428 19.284 20.401 19.2134 20.4206 19.1452L20.7332 17.9477C20.7455 17.899 20.7283 17.8479 20.6889 17.8162L19.7241 17.03C19.6971 17.0057 19.6798 16.974 19.6774 16.9375C19.6724 16.8669 19.729 16.8061 19.8004 16.8012L21.0483 16.7258C21.0975 16.7233 21.1418 16.6917 21.1615 16.6454L21.6193 15.4941C21.6316 15.4625 21.6586 15.4357 21.6906 15.4235C21.7595 15.3968 21.8334 15.4284 21.8605 15.4941L22.3182 16.6454C22.3355 16.6917 22.3798 16.7233 22.4315 16.7258L23.6793 16.8012C23.7162 16.8012 23.7482 16.8207 23.7728 16.8475C23.8171 16.9035 23.8097 16.9838 23.7531 17.03L22.7883 17.8162C22.7489 17.8479 22.7317 17.899 22.7465 17.9477L23.0591 19.1452ZM19.8496 23.7237C20.332 23.2442 21.0015 22.9496 21.7399 22.9496C23.2166 22.9496 24.4127 24.1326 24.4127 25.593C24.4127 27.0535 23.2166 28.2388 21.7399 28.2388C20.2631 28.2388 19.0645 27.0535 19.0645 25.593C19.0645 24.8628 19.3648 24.2032 19.8496 23.7237ZM22.5767 32.1017L21.7399 33.3625L20.9006 32.1017L21.031 31.1451C20.9547 31.0916 20.8981 31.0161 20.8686 30.926L20.6692 30.3127C20.6545 30.2713 20.6471 30.225 20.6471 30.1812C20.6471 29.9475 20.8391 29.7601 21.0729 29.7626H22.4068C22.4511 29.7601 22.4979 29.7674 22.5397 29.782C22.7637 29.8551 22.8843 30.0912 22.8105 30.3127L22.6087 30.926C22.5816 31.0137 22.525 31.0916 22.4487 31.1427L22.5767 32.1017ZM28.2645 23.1371C28.2719 23.1711 28.2645 23.2077 28.2473 23.2393C28.2104 23.2977 28.1292 23.3148 28.0676 23.2782L27.0142 22.6137C26.9724 22.5845 26.9158 22.5845 26.8739 22.6137L25.8205 23.2782C25.7885 23.2953 25.7516 23.3026 25.7172 23.2928C25.6483 23.2758 25.6064 23.2052 25.6236 23.1371L25.9387 21.9395C25.951 21.8908 25.9338 21.8397 25.8944 21.8081L24.9296 21.0219C24.9025 21 24.8853 20.9659 24.8828 20.9318C24.8779 20.8612 24.932 20.8004 25.0034 20.7955L26.2512 20.72C26.3029 20.7176 26.3472 20.686 26.3645 20.6373L26.8223 19.4884C26.837 19.4543 26.8641 19.4276 26.8961 19.4154C26.9625 19.3886 27.0388 19.4203 27.0659 19.4884L27.5237 20.6373C27.5409 20.686 27.5852 20.7176 27.6369 20.72L28.8847 20.7955C28.9192 20.7979 28.9537 20.8125 28.9758 20.8418C29.0226 20.8953 29.0152 20.9756 28.9586 21.0219L27.9938 21.8081C27.9544 21.8397 27.9372 21.8908 27.9519 21.9395L28.2645 23.1371ZM36.2979 24.9967C34.2206 24.9967 32.8448 26.681 32.8448 28.4336C32.8448 29.2709 33.1574 30.1252 33.8588 30.8189C34.26 31.2133 34.26 31.8558 33.8588 32.2502L31.6561 34.4286C31.2573 34.8254 30.6076 34.8254 30.2089 34.4286C29.6477 33.8639 28.9044 33.5134 28.107 33.4404C27.7157 32.2429 26.9847 31.1816 26.0051 30.3808C28.9733 28.8206 30.8291 25.7683 30.8266 22.4434C30.8266 17.4803 26.7583 13.4568 21.7374 13.4568C16.7165 13.4568 12.6506 17.4828 12.6531 22.4458C12.6531 25.7683 14.5064 28.8206 17.4746 30.3808C16.495 31.1816 15.764 32.2429 15.3727 33.438C14.5753 33.5134 13.8295 33.8639 13.2708 34.4286C12.8697 34.8254 12.2224 34.8254 11.8236 34.4286L9.6184 32.2502C9.21969 31.8534 9.21969 31.2133 9.6184 30.8189C10.3198 30.1252 10.6349 29.2709 10.6349 28.4336C10.6349 26.681 9.25661 24.9967 7.18181 24.9967C6.61573 24.9967 6.15794 24.5415 6.15794 23.9841V20.9026C6.15794 20.3428 6.61573 19.89 7.18181 19.89C9.25661 19.89 10.6349 18.2057 10.6349 16.4507C10.6349 15.6134 10.3198 14.7615 9.6184 14.0678C9.21969 13.671 9.21969 13.0309 9.6184 12.6341L11.8236 10.4556C12.2224 10.0613 12.8721 10.0613 13.2708 10.4556C13.9723 11.1493 14.8362 11.4609 15.6828 11.4609C17.4549 11.4609 19.158 10.0978 19.158 8.0435C19.158 7.4861 19.6158 7.03336 20.1819 7.03336H23.2978C23.8639 7.03336 24.3217 7.4861 24.3217 8.0435C24.3217 10.0978 26.0248 11.4609 27.7969 11.4609C28.6435 11.4609 29.5074 11.1493 30.2089 10.4556C30.6076 10.0613 31.2573 10.0613 31.6561 10.4556L33.8613 12.6366C34.26 13.0309 34.26 13.671 33.8613 14.0678C31.6905 16.2122 33.2312 19.89 36.2979 19.89C36.864 19.89 37.3218 20.3428 37.3218 20.9026V23.9841C37.3218 24.5439 36.864 24.9967 36.2979 24.9967Z" fill="#39FFFF"/>
</g>
<defs>
<clipPath id="clip0_123_3659">
<rect width="43.4797" height="43" fill="white" transform="translate(0 0.943359)"/>
</clipPath>
</defs>
</svg>
