<svg width="45" height="43" viewBox="0 0 45 43" fill="none" xmlns="http://www.w3.org/2000/svg">
<g clip-path="url(#clip0_123_2803)">
<path d="M19.5684 18.4769V24.5231H25.682V18.4769H19.5684ZM24.1536 23.0116H21.0968V19.9885H24.1536V23.0116Z" fill="#39FFFF"/>
<path d="M22.6256 0C10.6198 0 0.885742 9.62668 0.885742 21.5C0.885742 33.3733 10.6198 43 22.6256 43C34.6314 43 44.3655 33.3733 44.3655 21.5C44.3655 9.62668 34.6314 0 22.6256 0ZM31.2152 20.743C31.5302 19.8643 32.3794 19.2315 33.3762 19.2315C34.6412 19.2315 35.67 20.2489 35.67 21.5C35.67 22.7511 34.6412 23.7685 33.3762 23.7685C32.3794 23.7685 31.5302 23.1357 31.2152 22.257H28.7392V26.0346H34.1416V29.9948C35.0301 30.3064 35.67 31.1486 35.67 32.1319C35.67 33.383 34.6412 34.4005 33.3762 34.4005C32.1111 34.4005 31.0848 33.383 31.0848 32.1319C31.0848 31.1486 31.7222 30.3064 32.6132 29.9948V27.5462H26.9746V29.9948C27.863 30.3064 28.503 31.1486 28.503 32.1319C28.503 33.383 27.4742 34.4005 26.2091 34.4005C24.9441 34.4005 23.9153 33.383 23.9153 32.1319C23.9153 31.1486 24.5552 30.3064 25.4437 29.9948V27.5462H19.8051V29.9948C20.696 30.3064 21.3335 31.1486 21.3335 32.1319C21.3335 33.383 20.3047 34.4005 19.0421 34.4005C17.7795 34.4005 16.7482 33.383 16.7482 32.1319C16.7482 31.1486 17.3881 30.3064 18.2766 29.9948V27.5462H12.638V29.9948C13.5265 30.3064 14.1664 31.1486 14.1664 32.1319C14.1664 33.383 13.1376 34.4005 11.8726 34.4005C10.6075 34.4005 9.58119 33.383 9.58119 32.1319C9.58119 31.1486 10.2186 30.3064 11.1096 29.9948V26.0346H16.5095V22.257H14.036C13.7209 23.1357 12.8694 23.7685 11.8726 23.7685C10.61 23.7685 9.58119 22.7511 9.58119 21.5C9.58119 20.2489 10.61 19.2315 11.8726 19.2315C12.8694 19.2315 13.7209 19.8643 14.036 20.743H16.5095V16.9654H11.1096V13.0052C10.2186 12.6936 9.58119 11.8514 9.58119 10.8681C9.58119 9.61695 10.61 8.59951 11.8726 8.59951C13.1352 8.59951 14.1664 9.61695 14.1664 10.8681C14.1664 11.8514 13.5265 12.6936 12.638 13.0052V15.4538H18.2766V13.0052C17.3881 12.6936 16.7482 11.8514 16.7482 10.8681C16.7482 9.61695 17.777 8.59951 19.0421 8.59951C20.3071 8.59951 21.3335 9.61695 21.3335 10.8681C21.3335 11.8514 20.696 12.6936 19.8051 13.0052V15.4538H25.4437V13.0052C24.5552 12.6936 23.9153 11.8514 23.9153 10.8681C23.9153 9.61695 24.9441 8.59951 26.2091 8.59951C27.4742 8.59951 28.503 9.61695 28.503 10.8681C28.503 11.8514 27.863 12.6936 26.9746 13.0052V15.4538H32.6132V13.0052C31.7222 12.6936 31.0848 11.8514 31.0848 10.8681C31.0848 9.61695 32.1136 8.59951 33.3762 8.59951C34.6388 8.59951 35.67 9.61695 35.67 10.8681C35.67 11.8514 35.0301 12.6936 34.1416 13.0052V16.9654H28.7392V20.743H31.2152Z" fill="#39FFFF"/>
</g>
<defs>
<clipPath id="clip0_123_2803">
<rect width="43.4797" height="43" fill="white" transform="translate(0.885742)"/>
</clipPath>
</defs>
</svg>
