<svg width="44" height="44" viewBox="0 0 44 44" fill="none" xmlns="http://www.w3.org/2000/svg">
<g clip-path="url(#clip0_116_8829)">
<path d="M18.9424 18.7239V24.7701H25.056V18.7239H18.9424ZM23.5276 23.2585H20.4708V20.2354H23.5276V23.2585Z" fill="#39FFFF"/>
<path d="M21.9996 0.24707C9.99385 0.24707 0.259766 9.87375 0.259766 21.7471C0.259766 33.6204 9.99385 43.2471 21.9996 43.2471C34.0054 43.2471 43.7395 33.6204 43.7395 21.7471C43.7395 9.87375 34.0054 0.24707 21.9996 0.24707ZM30.5892 20.9901C30.9043 20.1114 31.7534 19.4785 32.7502 19.4785C34.0152 19.4785 35.044 20.496 35.044 21.7471C35.044 22.9982 34.0152 24.0156 32.7502 24.0156C31.7534 24.0156 30.9043 23.3828 30.5892 22.5041H28.1133V26.2817H33.5156V30.2419C34.4041 30.5535 35.044 31.3957 35.044 32.379C35.044 33.6301 34.0152 34.6476 32.7502 34.6476C31.4851 34.6476 30.4588 33.6301 30.4588 32.379C30.4588 31.3957 31.0962 30.5535 31.9872 30.2419V27.7933H26.3486V30.2419C27.2371 30.5535 27.877 31.3957 27.877 32.379C27.877 33.6301 26.8482 34.6476 25.5831 34.6476C24.3181 34.6476 23.2893 33.6301 23.2893 32.379C23.2893 31.3957 23.9292 30.5535 24.8177 30.2419V27.7933H19.1791V30.2419C20.07 30.5535 20.7075 31.3957 20.7075 32.379C20.7075 33.6301 19.6787 34.6476 18.4161 34.6476C17.1535 34.6476 16.1223 33.6301 16.1223 32.379C16.1223 31.3957 16.7622 30.5535 17.6507 30.2419V27.7933H12.012V30.2419C12.9005 30.5535 13.5404 31.3957 13.5404 32.379C13.5404 33.6301 12.5117 34.6476 11.2466 34.6476C9.98154 34.6476 8.95522 33.6301 8.95522 32.379C8.95522 31.3957 9.59267 30.5535 10.4836 30.2419V26.2817H15.8835V22.5041H13.41C13.095 23.3828 12.2434 24.0156 11.2466 24.0156C9.984 24.0156 8.95522 22.9982 8.95522 21.7471C8.95522 20.496 9.984 19.4785 11.2466 19.4785C12.2434 19.4785 13.095 20.1114 13.41 20.9901H15.8835V17.2124H10.4836V13.2522C9.59267 12.9407 8.95522 12.0985 8.95522 11.1151C8.95522 9.86402 9.984 8.84658 11.2466 8.84658C12.5092 8.84658 13.5404 9.86402 13.5404 11.1151C13.5404 12.0985 12.9005 12.9407 12.012 13.2522V15.7009H17.6507V13.2522C16.7622 12.9407 16.1223 12.0985 16.1223 11.1151C16.1223 9.86402 17.151 8.84658 18.4161 8.84658C19.6812 8.84658 20.7075 9.86402 20.7075 11.1151C20.7075 12.0985 20.07 12.9407 19.1791 13.2522V15.7009H24.8177V13.2522C23.9292 12.9407 23.2893 12.0985 23.2893 11.1151C23.2893 9.86402 24.3181 8.84658 25.5831 8.84658C26.8482 8.84658 27.877 9.86402 27.877 11.1151C27.877 12.0985 27.2371 12.9407 26.3486 13.2522V15.7009H31.9872V13.2522C31.0962 12.9407 30.4588 12.0985 30.4588 11.1151C30.4588 9.86402 31.4876 8.84658 32.7502 8.84658C34.0128 8.84658 35.044 9.86402 35.044 11.1151C35.044 12.0985 34.4041 12.9407 33.5156 13.2522V17.2124H28.1133V20.9901H30.5892Z" fill="#39FFFF"/>
</g>
<defs>
<clipPath id="clip0_116_8829">
<rect width="43.4797" height="43" fill="white" transform="translate(0.259766 0.24707)"/>
</clipPath>
</defs>
</svg>
