<svg width="44" height="43" viewBox="0 0 44 43" fill="none" xmlns="http://www.w3.org/2000/svg">
<g clip-path="url(#clip0_116_7624)">
<path d="M22.2452 0C10.2395 0 0.505371 9.62668 0.505371 21.5C0.505371 33.3733 10.2395 43 22.2452 43C34.251 43 43.9851 33.3757 43.9851 21.5C43.9851 9.62425 34.251 0 22.2452 0ZM17.82 25.8813L15.6197 28.0573C13.919 26.3851 12.8705 24.0679 12.8705 21.5049C12.8705 16.4031 17.0693 12.2336 22.2452 12.2336C24.8369 12.2336 27.1775 13.2802 28.8708 14.9524C30.5715 16.6343 31.62 18.9588 31.62 21.5049H28.4942C28.4942 19.7986 27.7952 18.2578 26.6705 17.1455H26.6532C25.5112 16.0161 23.9607 15.3248 22.2452 15.3248C18.7946 15.3248 15.9938 18.1094 15.9938 21.5049C15.9938 23.2038 16.6952 24.7519 17.82 25.8813ZM33.1779 35.4009C33.1779 36.265 32.4715 36.9489 31.6126 36.9489H19.1121C18.5953 36.9489 18.1449 36.7201 17.8618 36.3307C17.6698 36.0922 17.5443 35.7636 17.5443 35.4082V32.351C17.5443 31.4455 17.9529 30.6204 18.5953 30.0508C19.1367 29.5567 19.8702 29.2598 20.6701 29.2598V21.5122C20.6701 20.6554 21.3789 19.9641 22.2378 19.9641C23.0968 19.9641 23.8032 20.6651 23.8032 21.5122V26.1442C23.8032 25.2874 24.512 24.5961 25.371 24.5961C26.0699 24.5961 26.6532 25.0415 26.8526 25.6744C26.8944 25.8156 26.9289 25.9811 26.9289 26.1369V27.6874C26.9289 26.8281 27.6377 26.1369 28.4942 26.1369C29.0702 26.1369 29.5698 26.4509 29.8381 26.9109C29.9783 27.1421 30.0546 27.405 30.0546 27.6874V29.2354C30.0546 28.3786 30.761 27.6874 31.62 27.6874C32.0704 27.6874 32.4789 27.8748 32.7546 28.1644C33.0204 28.4444 33.1779 28.8143 33.1779 29.2184V35.4009ZM34.7457 21.5049C34.7457 18.1094 33.3379 15.0181 31.0711 12.7764C28.8117 10.5346 25.686 9.14231 22.2452 9.14231C15.3538 9.14231 9.74475 14.6895 9.74475 21.5049C9.74475 24.9174 11.1526 27.9916 13.4119 30.2407V30.2577L11.1944 32.4338C8.36893 29.6322 6.61901 25.7742 6.61901 21.5049C6.61901 12.9735 13.6187 6.05106 22.2452 6.05106C26.5622 6.05106 30.4632 7.78167 33.2961 10.576C36.1215 13.3776 37.8714 17.2428 37.8714 21.5049H34.7457Z" fill="#39FFFF"/>
</g>
<defs>
<clipPath id="clip0_116_7624">
<rect width="43.4797" height="43" fill="white" transform="translate(0.505371)"/>
</clipPath>
</defs>
</svg>
