<svg width="44" height="44" viewBox="0 0 44 44" fill="none" xmlns="http://www.w3.org/2000/svg">
<g clip-path="url(#clip0_116_8819)">
<path d="M21.9996 0.24707C9.99385 0.24707 0.259766 9.87375 0.259766 21.7471C0.259766 33.6204 9.99385 43.2471 21.9996 43.2471C34.0054 43.2471 43.7395 33.6204 43.7395 21.7471C43.7395 9.87375 34.0054 0.24707 21.9996 0.24707ZM9.16688 19.3544L11.9727 18.2226C12.2286 17.1443 12.6618 16.1293 13.2353 15.2141L12.0588 12.4514L13.7915 10.7378L16.5874 11.8989C17.5128 11.3318 18.5392 10.9058 19.6295 10.6502L20.7715 7.8754H23.2253L24.3673 10.6502C25.4601 10.9058 26.4839 11.3318 27.4118 11.8989L30.2053 10.7354L31.938 12.449L30.7615 15.2141C31.3374 16.1293 31.7682 17.1443 32.0266 18.225L34.8299 19.3544V20.939H27.8105C28.0247 17.6116 25.3592 14.8076 21.9996 14.8076C18.6401 14.8076 15.9746 17.6116 16.1887 20.939H9.16688V19.3544ZM32.8634 25.089C32.8634 26.4205 31.7755 27.4987 30.4293 27.4987C29.083 27.4987 27.9951 26.4205 27.9951 25.089C27.9951 23.7576 29.0854 22.6817 30.4293 22.6817C31.7731 22.6817 32.8634 23.76 32.8634 25.089ZM25.529 23.0834C25.529 25.0111 23.9489 26.5738 21.9996 26.5738C20.0503 26.5738 18.4678 25.0111 18.4678 23.0834C18.4678 21.1556 20.0479 19.5905 21.9996 19.5905C23.9514 19.5905 25.529 21.1532 25.529 23.0834ZM16.0017 25.089C16.0017 26.4205 14.9113 27.4987 13.5675 27.4987C12.2237 27.4987 11.1334 26.4205 11.1334 25.089C11.1334 23.7576 12.2237 22.6817 13.5675 22.6817C14.9113 22.6817 16.0017 23.76 16.0017 25.089ZM8.57865 33.0581V31.717C8.69925 30.0959 9.60497 28.6914 10.9242 27.8785C12.14 29.0054 13.9589 29.2391 15.4257 28.4407C14.424 29.7892 13.8702 31.3859 13.8604 33.0581H8.57865ZM29.2356 34.6451H14.7612V32.6979C14.9335 30.3466 16.2527 28.3093 18.1651 27.1288C20.3211 29.1271 23.6757 29.1271 25.8317 27.1288C27.7465 28.3093 29.0633 30.3466 29.2356 32.6979V34.6451ZM35.4181 33.0581H30.1388C30.129 31.3859 29.5728 29.7892 28.571 28.4407C30.0379 29.2391 31.8568 29.0054 33.0726 27.8785C34.3918 28.6914 35.3 30.0959 35.4181 31.717V33.0581Z" fill="#39FFFF"/>
</g>
<defs>
<clipPath id="clip0_116_8819">
<rect width="43.4797" height="43" fill="white" transform="translate(0.259766 0.24707)"/>
</clipPath>
</defs>
</svg>
