<svg width="44" height="44" viewBox="0 0 44 44" fill="none" xmlns="http://www.w3.org/2000/svg">
<g clip-path="url(#clip0_116_8807)">
<path d="M21.9996 0.24707C9.99385 0.24707 0.259766 9.87375 0.259766 21.7471C0.259766 33.6204 9.99385 43.2471 21.9996 43.2471C34.0054 43.2471 43.7395 33.6204 43.7395 21.7471C43.7395 9.87375 34.0054 0.24707 21.9996 0.24707ZM16.2133 34.7863C16.2133 32.8804 17.1732 31.0987 18.773 30.0375C18.7754 30.035 18.7779 30.035 18.7779 30.035C18.928 29.9377 19.1274 29.979 19.2258 30.1275L21.9996 34.3044L24.7734 30.1275L24.7759 30.1226C24.8768 29.9766 25.0786 29.9377 25.2263 30.0375C26.826 31.0987 27.7859 32.8804 27.7859 34.7863C27.7859 37.9481 16.2133 37.9481 16.2133 34.7863ZM15.7457 21.1118L14.7809 20.3256C14.7514 20.3037 14.7341 20.2696 14.7341 20.2355C14.7292 20.1649 14.7834 20.1041 14.8547 20.0992L16.1026 20.0238C16.1543 20.0213 16.1986 19.9897 16.2158 19.941L16.6736 18.7921C16.6883 18.7581 16.7129 18.7313 16.7474 18.7191C16.8139 18.6923 16.8902 18.724 16.9148 18.7921L17.375 19.941C17.3922 19.9897 17.4365 20.0213 17.4882 20.0238L18.7361 20.0992C18.7705 20.1016 18.805 20.1163 18.8271 20.1455C18.8739 20.199 18.864 20.2793 18.8099 20.3256L17.8451 21.1118C17.8057 21.1434 17.7885 21.1945 17.8008 21.2432L18.1158 22.4408C18.1232 22.4749 18.1183 22.5114 18.0986 22.543C18.0592 22.6014 17.9805 22.6185 17.9189 22.582L16.8655 21.9175C16.8212 21.8882 16.7671 21.8882 16.7253 21.9175L15.6694 22.582C15.6399 22.599 15.6029 22.6063 15.5685 22.5966C15.4996 22.5795 15.4577 22.5089 15.475 22.4408L15.7875 21.2432C15.8023 21.1945 15.7851 21.1434 15.7457 21.1118ZM23.3188 18.4489C23.3287 18.483 23.3213 18.5195 23.3041 18.5487C23.2647 18.6096 23.1835 18.6266 23.1244 18.5877L22.0685 17.9232C22.0267 17.8964 21.9725 17.8964 21.9307 17.9232L20.8748 18.5877C20.8453 18.6071 20.8084 18.6144 20.7739 18.6047C20.7026 18.5877 20.6607 18.5171 20.6804 18.4489L20.993 17.2514C21.0053 17.2027 20.9881 17.1516 20.9487 17.1199L19.9839 16.3337C19.9568 16.3094 19.9396 16.2778 19.9371 16.2412C19.9322 16.1707 19.9888 16.1098 20.0602 16.1049L21.308 16.0295C21.3572 16.027 21.4015 15.9954 21.4212 15.9492L21.879 14.7978C21.8913 14.7662 21.9184 14.7394 21.9504 14.7273C22.0193 14.7005 22.0931 14.7321 22.1202 14.7978L22.578 15.9492C22.5952 15.9954 22.6395 16.027 22.6912 16.0295L23.9391 16.1049C23.976 16.1049 24.008 16.1244 24.0326 16.1512C24.0769 16.2072 24.0695 16.2875 24.0129 16.3337L23.0481 17.1199C23.0087 17.1516 22.9915 17.2027 23.0063 17.2514L23.3188 18.4489ZM20.1094 23.0274C20.5918 22.5479 21.2613 22.2534 21.9996 22.2534C23.4763 22.2534 24.6725 23.4363 24.6725 24.8967C24.6725 26.3572 23.4763 27.5426 21.9996 27.5426C20.5229 27.5426 19.3243 26.3572 19.3243 24.8967C19.3243 24.1665 19.6246 23.5069 20.1094 23.0274ZM22.8364 31.4054L21.9996 32.6662L21.1603 31.4054L21.2908 30.4488C21.2145 30.3953 21.1579 30.3198 21.1284 30.2297L20.929 29.6164C20.9142 29.575 20.9068 29.5287 20.9068 29.4849C20.9068 29.2513 21.0988 29.0638 21.3326 29.0663H22.6666C22.7109 29.0638 22.7577 29.0711 22.7995 29.0857C23.0235 29.1588 23.1441 29.3949 23.0702 29.6164L22.8684 30.2297C22.8414 30.3174 22.7847 30.3953 22.7084 30.4464L22.8364 31.4054ZM28.5243 22.4408C28.5317 22.4749 28.5243 22.5114 28.5071 22.543C28.4701 22.6014 28.3889 22.6185 28.3274 22.582L27.274 21.9175C27.2321 21.8882 27.1755 21.8882 27.1337 21.9175L26.0803 22.582C26.0483 22.599 26.0114 22.6063 25.9769 22.5966C25.908 22.5795 25.8662 22.5089 25.8834 22.4408L26.1984 21.2432C26.2107 21.1945 26.1935 21.1434 26.1541 21.1118L25.1893 20.3256C25.1623 20.3037 25.145 20.2696 25.1426 20.2355C25.1377 20.1649 25.1918 20.1041 25.2632 20.0992L26.511 20.0238C26.5627 20.0213 26.607 19.9897 26.6242 19.941L27.082 18.7921C27.0968 18.7581 27.1239 18.7313 27.1559 18.7191C27.2223 18.6923 27.2986 18.724 27.3257 18.7921L27.7835 19.941C27.8007 19.9897 27.845 20.0213 27.8967 20.0238L29.1445 20.0992C29.179 20.1016 29.2134 20.1163 29.2356 20.1455C29.2823 20.199 29.275 20.2793 29.2183 20.3256L28.2535 21.1118C28.2142 21.1434 28.1969 21.1945 28.2117 21.2432L28.5243 22.4408ZM36.5577 24.3004C34.4804 24.3004 33.1046 25.9848 33.1046 27.7373C33.1046 28.5746 33.4172 29.4289 34.1186 30.1226C34.5198 30.517 34.5198 31.1596 34.1186 31.5539L31.9158 33.7324C31.5171 34.1291 30.8674 34.1291 30.4686 33.7324C29.9075 33.1677 29.1642 32.8171 28.3668 32.7441C27.9754 31.5466 27.2445 30.4853 26.2649 29.6845C29.2331 28.1243 31.0889 25.072 31.0864 21.7471C31.0864 16.784 27.018 12.7605 21.9972 12.7605C16.9763 12.7605 12.9104 16.7865 12.9128 21.7495C12.9128 25.072 14.7661 28.1243 17.7343 29.6845C16.7548 30.4853 16.0238 31.5466 15.6325 32.7417C14.835 32.8171 14.0893 33.1677 13.5306 33.7324C13.1294 34.1291 12.4821 34.1291 12.0834 33.7324L9.87817 31.5539C9.47945 31.1571 9.47945 30.517 9.87817 30.1226C10.5796 29.4289 10.8946 28.5746 10.8946 27.7373C10.8946 25.9848 9.51637 24.3004 7.44157 24.3004C6.87549 24.3004 6.41771 23.8452 6.41771 23.2878V20.2063C6.41771 19.6465 6.87549 19.1937 7.44157 19.1937C9.51637 19.1937 10.8946 17.5094 10.8946 15.7544C10.8946 14.9171 10.5796 14.0652 9.87817 13.3715C9.47945 12.9747 9.47945 12.3346 9.87817 11.9378L12.0834 9.75935C12.4821 9.36504 13.1319 9.36504 13.5306 9.75935C14.232 10.4531 15.0959 10.7646 15.9426 10.7646C17.7147 10.7646 19.4178 9.40155 19.4178 7.34721C19.4178 6.78981 19.8756 6.33707 20.4417 6.33707H23.5576C24.1236 6.33707 24.5814 6.78981 24.5814 7.34721C24.5814 9.40155 26.2846 10.7646 28.0567 10.7646C28.9033 10.7646 29.7672 10.4531 30.4686 9.75935C30.8674 9.36504 31.5171 9.36504 31.9158 9.75935L34.1211 11.9403C34.5198 12.3346 34.5198 12.9747 34.1211 13.3715C31.9503 15.5159 33.491 19.1937 36.5577 19.1937C37.1237 19.1937 37.5815 19.6465 37.5815 20.2063V23.2878C37.5815 23.8477 37.1237 24.3004 36.5577 24.3004Z" fill="#39FFFF"/>
</g>
<defs>
<clipPath id="clip0_116_8807">
<rect width="43.4797" height="43" fill="white" transform="translate(0.259766 0.24707)"/>
</clipPath>
</defs>
</svg>
