<svg width="44" height="43" viewBox="0 0 44 43" fill="none" xmlns="http://www.w3.org/2000/svg">
<g clip-path="url(#clip0_116_7934)">
<path d="M21.7328 0C9.72387 0 -0.00830078 9.62479 -0.00830078 21.4988C-0.00830078 33.3728 9.72387 43 21.7328 43C33.7417 43 43.4739 33.3752 43.4739 21.4988C43.4739 9.62236 33.7392 0 21.7328 0ZM9.35221 16.4308C9.35221 10.9514 13.8417 6.51146 19.3797 6.51146V9.93881H20.2732C21.3562 9.93881 22.2349 10.8078 22.2349 11.8789C22.2349 12.9499 21.3562 13.8213 20.2732 13.8213H19.3797V17.2463H9.38666C9.36451 16.9785 9.35221 16.7059 9.35221 16.4308ZM16.2489 25.7367C15.0379 24.2397 14.2552 22.3873 14.0878 20.3645H22.3063V22.139C20.6719 22.5333 19.4536 23.9938 19.4536 25.7318C19.4536 27.4699 20.6719 28.9304 22.3063 29.3247V30.868H18.5503C18.2549 28.9985 17.4574 27.2313 16.2489 25.7367ZM29.491 36.4885H18.6758V32.6352L29.491 32.6255V36.4885ZM31.9178 25.7367C30.7093 27.2313 29.9094 28.9985 29.6165 30.868H24.0834V27.6743H23.1924C22.1069 27.6743 21.2282 26.8053 21.2282 25.7318C21.2282 24.6584 22.1069 23.7918 23.1924 23.7918H24.0834V20.3645H34.0789C33.9115 22.3873 33.1288 24.2397 31.9178 25.7367ZM34.0789 18.607H24.0834V15.1894H24.9744C26.0598 15.1894 26.9385 14.3204 26.9385 13.2493C26.9385 12.1783 26.0598 11.3068 24.9744 11.3068H24.0834V7.87948C29.6263 7.87948 34.0986 12.2951 34.1109 17.7769C34.1134 18.0568 34.1011 18.3343 34.0789 18.607Z" fill="#39FFFF"/>
</g>
<defs>
<clipPath id="clip0_116_7934">
<rect width="43.4822" height="43" fill="white" transform="translate(-0.00830078)"/>
</clipPath>
</defs>
</svg>
