<svg width="45" height="44" viewBox="0 0 45 44" fill="none" xmlns="http://www.w3.org/2000/svg">
<g clip-path="url(#clip0_116_5895)">
<path d="M22.7247 0.443359C10.7158 0.443359 0.983643 10.0682 0.983643 21.9421C0.983643 33.8161 10.7158 43.4434 22.7247 43.4434C34.7337 43.4434 44.4658 33.8186 44.4658 21.9421C44.4658 10.0657 34.7312 0.443359 22.7247 0.443359ZM10.3441 16.8742C10.3441 11.3948 14.8336 6.95482 20.3717 6.95482V10.3822H21.2652C22.3481 10.3822 23.2268 11.2512 23.2268 12.3222C23.2268 13.3933 22.3481 14.2647 21.2652 14.2647H20.3717V17.6896H10.3786C10.3565 17.4218 10.3441 17.1492 10.3441 16.8742ZM17.2408 26.1801C16.0299 24.683 15.2472 22.8306 15.0798 20.8078H23.2982V22.5823C21.6639 22.9767 20.4455 24.4372 20.4455 26.1752C20.4455 27.9132 21.6639 29.3737 23.2982 29.7681V31.3113H19.5422C19.2468 29.4419 18.4494 27.6747 17.2408 26.1801ZM30.4829 36.9319H19.6677V33.0786L30.4829 33.0688V36.9319ZM32.9098 26.1801C31.7013 27.6747 30.9013 29.4419 30.6084 31.3113H25.0753V28.1177H24.1843C23.0989 28.1177 22.2202 27.2487 22.2202 26.1752C22.2202 25.1017 23.0989 24.2352 24.1843 24.2352H25.0753V20.8078H35.0709C34.9035 22.8306 34.1208 24.683 32.9098 26.1801ZM35.0709 19.0503H25.0753V15.6327H25.9663C27.0518 15.6327 27.9305 14.7637 27.9305 13.6927C27.9305 12.6216 27.0518 11.7502 25.9663 11.7502H25.0753V8.32284C30.6183 8.32284 35.0905 12.7385 35.1028 18.2203C35.1053 18.5002 35.093 18.7777 35.0709 19.0503Z" fill="#39FFFF"/>
</g>
<defs>
<clipPath id="clip0_116_5895">
<rect width="43.4822" height="43" fill="white" transform="translate(0.983643 0.443359)"/>
</clipPath>
</defs>
</svg>
