<svg width="43" height="43" viewBox="0 0 43 43" fill="none" xmlns="http://www.w3.org/2000/svg">
<g clip-path="url(#clip0_42_551)">
<path d="M21.5 0C9.62668 0 0 9.62668 0 21.5C0 33.3733 9.62668 43 21.5 43C33.3733 43 43 33.3757 43 21.5C43 9.62425 33.3733 0 21.5 0ZM17.1236 25.8813L14.9475 28.0573C13.2656 26.3851 12.2287 24.0679 12.2287 21.5049C12.2287 16.4031 16.3812 12.2336 21.5 12.2336C24.0631 12.2336 26.3778 13.2802 28.0525 14.9524C29.7344 16.6343 30.7713 18.9588 30.7713 21.5049H27.6801C27.6801 19.7986 26.9888 18.2578 25.8764 17.1455H25.8594C24.73 16.0161 23.1965 15.3248 21.5 15.3248C18.0875 15.3248 15.3175 18.1094 15.3175 21.5049C15.3175 23.2038 16.0112 24.7519 17.1236 25.8813ZM32.3121 35.4009C32.3121 36.265 31.6135 36.9489 30.764 36.9489H18.4014C17.8903 36.9489 17.4449 36.7201 17.1649 36.3307C16.9751 36.0922 16.851 35.7636 16.851 35.4082V32.351C16.851 31.4455 17.255 30.6204 17.8903 30.0508C18.4258 29.5567 19.1511 29.2598 19.9422 29.2598V21.5122C19.9422 20.6554 20.6432 19.9641 21.4927 19.9641C22.3422 19.9641 23.0408 20.6651 23.0408 21.5122V26.1442C23.0408 25.2874 23.7418 24.5961 24.5912 24.5961C25.2825 24.5961 25.8594 25.0415 26.0565 25.6744C26.0979 25.8156 26.132 25.9811 26.132 26.1369V27.6874C26.132 26.8281 26.833 26.1369 27.6801 26.1369C28.2496 26.1369 28.7437 26.4509 29.0091 26.9109C29.1478 27.1421 29.2233 27.405 29.2233 27.6874V29.2354C29.2233 28.3786 29.9218 27.6874 30.7713 27.6874C31.2167 27.6874 31.6208 27.8748 31.8934 28.1644C32.1563 28.4444 32.3121 28.8143 32.3121 29.2184V35.4009ZM33.8626 21.5049C33.8626 18.1094 32.4703 15.0181 30.2285 12.7764C27.9941 10.5346 24.9028 9.14231 21.5 9.14231C14.6846 9.14231 9.13744 14.6895 9.13744 21.5049C9.13744 24.9174 10.5297 27.9916 12.7642 30.2407V30.2577L10.5711 32.4338C7.7768 29.6322 6.04619 25.7742 6.04619 21.5049C6.04619 12.9735 12.9686 6.05106 21.5 6.05106C25.7693 6.05106 29.6273 7.78167 32.4289 10.576C35.2232 13.3776 36.9538 17.2428 36.9538 21.5049H33.8626Z" fill="#39FFFF"/>
</g>
<defs>
<clipPath id="clip0_42_551">
<rect width="43" height="43" fill="white"/>
</clipPath>
</defs>
</svg>
