<svg width="44" height="44" viewBox="0 0 44 44" fill="none" xmlns="http://www.w3.org/2000/svg">
<g clip-path="url(#clip0_116_6190)">
<path d="M18.6831 18.9203V24.9664H24.7967V18.9203H18.6831ZM23.2683 23.4549H20.2115V20.4318H23.2683V23.4549Z" fill="#39FFFF"/>
<path d="M21.7399 0.443359C9.73408 0.443359 0 10.07 0 21.9434C0 33.8167 9.73408 43.4434 21.7399 43.4434C33.7456 43.4434 43.4797 33.8167 43.4797 21.9434C43.4797 10.07 33.7456 0.443359 21.7399 0.443359ZM30.3295 21.1864C30.6445 20.3077 31.4936 19.6748 32.4904 19.6748C33.7555 19.6748 34.7843 20.6923 34.7843 21.9434C34.7843 23.1945 33.7555 24.2119 32.4904 24.2119C31.4936 24.2119 30.6445 23.579 30.3295 22.7003H27.8535V26.478H33.2558V30.4382C34.1443 30.7498 34.7843 31.5919 34.7843 32.5753C34.7843 33.8264 33.7555 34.8438 32.4904 34.8438C31.2253 34.8438 30.199 33.8264 30.199 32.5753C30.199 31.5919 30.8365 30.7498 31.7274 30.4382V27.9895H26.0888V30.4382C26.9773 30.7498 27.6172 31.5919 27.6172 32.5753C27.6172 33.8264 26.5884 34.8438 25.3234 34.8438C24.0583 34.8438 23.0295 33.8264 23.0295 32.5753C23.0295 31.5919 23.6694 30.7498 24.5579 30.4382V27.9895H18.9193V30.4382C19.8103 30.7498 20.4477 31.5919 20.4477 32.5753C20.4477 33.8264 19.4189 34.8438 18.1563 34.8438C16.8937 34.8438 15.8625 33.8264 15.8625 32.5753C15.8625 31.5919 16.5024 30.7498 17.3909 30.4382V27.9895H11.7523V30.4382C12.6408 30.7498 13.2807 31.5919 13.2807 32.5753C13.2807 33.8264 12.2519 34.8438 10.9868 34.8438C9.72177 34.8438 8.69545 33.8264 8.69545 32.5753C8.69545 31.5919 9.3329 30.7498 10.2239 30.4382V26.478H15.6238V22.7003H13.1502C12.8352 23.579 11.9836 24.2119 10.9868 24.2119C9.72423 24.2119 8.69545 23.1945 8.69545 21.9434C8.69545 20.6923 9.72423 19.6748 10.9868 19.6748C11.9836 19.6748 12.8352 20.3077 13.1502 21.1864H15.6238V17.4087H10.2239V13.4485C9.3329 13.137 8.69545 12.2948 8.69545 11.3114C8.69545 10.0603 9.72423 9.04287 10.9868 9.04287C12.2494 9.04287 13.2807 10.0603 13.2807 11.3114C13.2807 12.2948 12.6408 13.137 11.7523 13.4485V15.8972H17.3909V13.4485C16.5024 13.137 15.8625 12.2948 15.8625 11.3114C15.8625 10.0603 16.8913 9.04287 18.1563 9.04287C19.4214 9.04287 20.4477 10.0603 20.4477 11.3114C20.4477 12.2948 19.8103 13.137 18.9193 13.4485V15.8972H24.5579V13.4485C23.6694 13.137 23.0295 12.2948 23.0295 11.3114C23.0295 10.0603 24.0583 9.04287 25.3234 9.04287C26.5884 9.04287 27.6172 10.0603 27.6172 11.3114C27.6172 12.2948 26.9773 13.137 26.0888 13.4485V15.8972H31.7274V13.4485C30.8365 13.137 30.199 12.2948 30.199 11.3114C30.199 10.0603 31.2278 9.04287 32.4904 9.04287C33.753 9.04287 34.7843 10.0603 34.7843 11.3114C34.7843 12.2948 34.1443 13.137 33.2558 13.4485V17.4087H27.8535V21.1864H30.3295Z" fill="#39FFFF"/>
</g>
<defs>
<clipPath id="clip0_116_6190">
<rect width="43.4797" height="43" fill="white" transform="translate(0 0.443359)"/>
</clipPath>
</defs>
</svg>
