<svg width="44" height="43" viewBox="0 0 44 43" fill="none" xmlns="http://www.w3.org/2000/svg">
<g clip-path="url(#clip0_2_1081)">
<path d="M21.75 0C9.87668 0 0.25 9.62668 0.25 21.5C0.25 33.3733 9.87668 43 21.75 43C33.6233 43 43.25 33.3733 43.25 21.5C43.25 9.62668 33.6233 0 21.75 0ZM16.0275 34.5392C16.0275 32.6334 16.9768 30.8516 18.559 29.7904C18.5614 29.788 18.5638 29.788 18.5638 29.788C18.7123 29.6906 18.9095 29.732 19.0068 29.8804L21.75 34.0573L24.4932 29.8804L24.4956 29.8756C24.5954 29.7295 24.795 29.6906 24.941 29.7904C26.5232 30.8516 27.4725 32.6334 27.4725 34.5392C27.4725 37.7011 16.0275 37.7011 16.0275 34.5392ZM15.5651 20.8647L14.6109 20.0785C14.5817 20.0566 14.5647 20.0225 14.5647 19.9885C14.5598 19.9179 14.6134 19.857 14.6839 19.8521L15.918 19.7767C15.9691 19.7743 16.0129 19.7426 16.03 19.6939L16.4827 18.5451C16.4973 18.511 16.5217 18.4842 16.5557 18.472C16.6214 18.4453 16.6969 18.4769 16.7212 18.5451L17.1764 19.6939C17.1935 19.7426 17.2373 19.7743 17.2884 19.7767L18.5224 19.8521C18.5565 19.8546 18.5906 19.8692 18.6125 19.8984C18.6588 19.9519 18.649 20.0323 18.5955 20.0785L17.6413 20.8647C17.6024 20.8964 17.5853 20.9475 17.5975 20.9962L17.9091 22.1937C17.9164 22.2278 17.9115 22.2643 17.892 22.2959C17.8531 22.3544 17.7752 22.3714 17.7143 22.3349L16.6726 21.6704C16.6287 21.6412 16.5752 21.6412 16.5338 21.6704L15.4896 22.3349C15.4604 22.3519 15.4239 22.3592 15.3898 22.3495C15.3217 22.3324 15.2803 22.2619 15.2973 22.1937L15.6064 20.9962C15.6211 20.9475 15.604 20.8964 15.5651 20.8647ZM23.0547 18.2019C23.0644 18.2359 23.0571 18.2724 23.04 18.3017C23.0011 18.3625 22.9208 18.3795 22.8624 18.3406L21.8182 17.6761C21.7768 17.6493 21.7232 17.6493 21.6818 17.6761L20.6376 18.3406C20.6084 18.3601 20.5719 18.3674 20.5378 18.3576C20.4673 18.3406 20.4259 18.27 20.4453 18.2019L20.7545 17.0043C20.7666 16.9556 20.7496 16.9045 20.7107 16.8729L19.7565 16.0867C19.7297 16.0623 19.7127 16.0307 19.7103 15.9942C19.7054 15.9236 19.7614 15.8627 19.832 15.8579L21.066 15.7824C21.1147 15.78 21.1585 15.7483 21.178 15.7021L21.6307 14.5508C21.6429 14.5191 21.6697 14.4924 21.7013 14.4802C21.7695 14.4534 21.8425 14.4851 21.8693 14.5508L22.322 15.7021C22.339 15.7483 22.3829 15.78 22.434 15.7824L23.668 15.8579C23.7045 15.8579 23.7362 15.8773 23.7605 15.9041C23.8043 15.9601 23.797 16.0404 23.7411 16.0867L22.7869 16.8729C22.748 16.9045 22.7309 16.9556 22.7455 17.0043L23.0547 18.2019ZM19.8806 22.7803C20.3577 22.3008 21.0198 22.0063 21.75 22.0063C23.2104 22.0063 24.3934 23.1892 24.3934 24.6497C24.3934 26.1101 23.2104 27.2955 21.75 27.2955C20.2896 27.2955 19.1042 26.1101 19.1042 24.6497C19.1042 23.9194 19.4011 23.2598 19.8806 22.7803ZM22.5776 31.1583L21.75 32.4192L20.92 31.1583L21.049 30.2017C20.9735 30.1482 20.9176 30.0727 20.8883 29.9827L20.6912 29.3693C20.6766 29.3279 20.6693 29.2817 20.6693 29.2379C20.6693 29.0042 20.8591 28.8168 21.0904 28.8192H22.4096C22.4534 28.8168 22.4997 28.8241 22.5411 28.8387C22.7626 28.9117 22.8818 29.1478 22.8088 29.3693L22.6092 29.9827C22.5824 30.0703 22.5265 30.1482 22.451 30.1993L22.5776 31.1583ZM28.2027 22.1937C28.21 22.2278 28.2027 22.2643 28.1856 22.2959C28.1491 22.3544 28.0688 22.3714 28.008 22.3349L26.9662 21.6704C26.9248 21.6412 26.8688 21.6412 26.8274 21.6704L25.7857 22.3349C25.754 22.3519 25.7175 22.3592 25.6834 22.3495C25.6153 22.3324 25.5739 22.2619 25.5909 22.1937L25.9025 20.9962C25.9147 20.9475 25.8976 20.8964 25.8587 20.8647L24.9045 20.0785C24.8778 20.0566 24.8607 20.0225 24.8583 19.9885C24.8534 19.9179 24.907 19.857 24.9776 19.8521L26.2116 19.7767C26.2627 19.7743 26.3065 19.7426 26.3236 19.6939L26.7763 18.5451C26.7909 18.511 26.8177 18.4842 26.8493 18.472C26.9151 18.4453 26.9905 18.4769 27.0173 18.5451L27.47 19.6939C27.4871 19.7426 27.5309 19.7743 27.582 19.7767L28.8161 19.8521C28.8501 19.8546 28.8842 19.8692 28.9061 19.8984C28.9524 19.9519 28.9451 20.0323 28.8891 20.0785L27.9349 20.8647C27.896 20.8964 27.8789 20.9475 27.8936 20.9962L28.2027 22.1937ZM36.1474 24.0533C34.0931 24.0533 32.7324 25.7377 32.7324 27.4902C32.7324 28.3275 33.0416 29.1819 33.7353 29.8756C34.132 30.2699 34.132 30.9125 33.7353 31.3068L31.5568 33.4853C31.1625 33.882 30.5199 33.882 30.1256 33.4853C29.5706 32.9206 28.8355 32.5701 28.0469 32.4971C27.6599 31.2995 26.937 30.2383 25.9682 29.4375C28.9037 27.8772 30.739 24.8249 30.7365 21.5C30.7365 16.537 26.713 12.5135 21.7476 12.5135C16.7821 12.5135 12.761 16.5394 12.7635 21.5024C12.7635 24.8249 14.5963 27.8772 17.5318 29.4375C16.563 30.2383 15.8401 31.2995 15.4531 32.4946C14.6645 32.5701 13.9269 32.9206 13.3744 33.4853C12.9777 33.882 12.3375 33.882 11.9432 33.4853L9.76228 31.3068C9.36797 30.9101 9.36797 30.2699 9.76228 29.8756C10.456 29.1819 10.7675 28.3275 10.7675 27.4902C10.7675 25.7377 9.40448 24.0533 7.35257 24.0533C6.79274 24.0533 6.34 23.5982 6.34 23.0408V19.9592C6.34 19.3994 6.79274 18.9467 7.35257 18.9467C9.40448 18.9467 10.7675 17.2623 10.7675 15.5074C10.7675 14.67 10.456 13.8181 9.76228 13.1244C9.36797 12.7277 9.36797 12.0875 9.76228 11.6908L11.9432 9.51228C12.3375 9.11797 12.9801 9.11797 13.3744 9.51228C14.0681 10.206 14.9225 10.5175 15.7598 10.5175C17.5123 10.5175 19.1967 9.15448 19.1967 7.10014C19.1967 6.54274 19.6494 6.09 20.2092 6.09H23.2908C23.8506 6.09 24.3033 6.54274 24.3033 7.10014C24.3033 9.15448 25.9877 10.5175 27.7402 10.5175C28.5775 10.5175 29.4319 10.206 30.1256 9.51228C30.5199 9.11797 31.1625 9.11797 31.5568 9.51228L33.7377 11.6932C34.132 12.0875 34.132 12.7277 33.7377 13.1244C31.5909 15.2688 33.1146 18.9467 36.1474 18.9467C36.7073 18.9467 37.16 19.3994 37.16 19.9592V23.0408C37.16 23.6006 36.7073 24.0533 36.1474 24.0533Z" fill="#39FFFF"/>
</g>
<defs>
<clipPath id="clip0_2_1081">
<rect width="43" height="43" fill="white" transform="translate(0.25)"/>
</clipPath>
</defs>
</svg>
