<svg width="44" height="43" viewBox="0 0 44 43" fill="none" xmlns="http://www.w3.org/2000/svg">
<g clip-path="url(#clip0_123_3097)">
<path d="M18.6826 18.4769V24.5231H24.7963V18.4769H18.6826ZM23.2678 23.0116H20.211V19.9885H23.2678V23.0116Z" fill="#39FFFF"/>
<path d="M21.7399 0C9.73408 0 0 9.62668 0 21.5C0 33.3733 9.73408 43 21.7399 43C33.7456 43 43.4797 33.3733 43.4797 21.5C43.4797 9.62668 33.7456 0 21.7399 0ZM30.3295 20.743C30.6445 19.8643 31.4936 19.2315 32.4904 19.2315C33.7555 19.2315 34.7843 20.2489 34.7843 21.5C34.7843 22.7511 33.7555 23.7685 32.4904 23.7685C31.4936 23.7685 30.6445 23.1357 30.3295 22.257H27.8535V26.0346H33.2558V29.9948C34.1443 30.3064 34.7843 31.1486 34.7843 32.1319C34.7843 33.383 33.7555 34.4005 32.4904 34.4005C31.2253 34.4005 30.199 33.383 30.199 32.1319C30.199 31.1486 30.8365 30.3064 31.7274 29.9948V27.5462H26.0888V29.9948C26.9773 30.3064 27.6172 31.1486 27.6172 32.1319C27.6172 33.383 26.5884 34.4005 25.3234 34.4005C24.0583 34.4005 23.0295 33.383 23.0295 32.1319C23.0295 31.1486 23.6694 30.3064 24.5579 29.9948V27.5462H18.9193V29.9948C19.8103 30.3064 20.4477 31.1486 20.4477 32.1319C20.4477 33.383 19.4189 34.4005 18.1563 34.4005C16.8937 34.4005 15.8625 33.383 15.8625 32.1319C15.8625 31.1486 16.5024 30.3064 17.3909 29.9948V27.5462H11.7523V29.9948C12.6408 30.3064 13.2807 31.1486 13.2807 32.1319C13.2807 33.383 12.2519 34.4005 10.9868 34.4005C9.72177 34.4005 8.69545 33.383 8.69545 32.1319C8.69545 31.1486 9.3329 30.3064 10.2239 29.9948V26.0346H15.6238V22.257H13.1502C12.8352 23.1357 11.9836 23.7685 10.9868 23.7685C9.72423 23.7685 8.69545 22.7511 8.69545 21.5C8.69545 20.2489 9.72423 19.2315 10.9868 19.2315C11.9836 19.2315 12.8352 19.8643 13.1502 20.743H15.6238V16.9654H10.2239V13.0052C9.3329 12.6936 8.69545 11.8514 8.69545 10.8681C8.69545 9.61695 9.72423 8.59951 10.9868 8.59951C12.2494 8.59951 13.2807 9.61695 13.2807 10.8681C13.2807 11.8514 12.6408 12.6936 11.7523 13.0052V15.4538H17.3909V13.0052C16.5024 12.6936 15.8625 11.8514 15.8625 10.8681C15.8625 9.61695 16.8913 8.59951 18.1563 8.59951C19.4214 8.59951 20.4477 9.61695 20.4477 10.8681C20.4477 11.8514 19.8103 12.6936 18.9193 13.0052V15.4538H24.5579V13.0052C23.6694 12.6936 23.0295 11.8514 23.0295 10.8681C23.0295 9.61695 24.0583 8.59951 25.3234 8.59951C26.5884 8.59951 27.6172 9.61695 27.6172 10.8681C27.6172 11.8514 26.9773 12.6936 26.0888 13.0052V15.4538H31.7274V13.0052C30.8365 12.6936 30.199 11.8514 30.199 10.8681C30.199 9.61695 31.2278 8.59951 32.4904 8.59951C33.753 8.59951 34.7843 9.61695 34.7843 10.8681C34.7843 11.8514 34.1443 12.6936 33.2558 13.0052V16.9654H27.8535V20.743H30.3295Z" fill="#39FFFF"/>
</g>
<defs>
<clipPath id="clip0_123_3097">
<rect width="43.4797" height="43" fill="white"/>
</clipPath>
</defs>
</svg>
