<svg width="44" height="43" viewBox="0 0 44 43" fill="none" xmlns="http://www.w3.org/2000/svg">
<g clip-path="url(#clip0_123_3081)">
<path d="M22.2457 0C10.2399 0 0.505859 9.62668 0.505859 21.5C0.505859 33.3733 10.2399 43 22.2457 43C34.2515 43 43.9856 33.3757 43.9856 21.5C43.9856 9.62425 34.2515 0 22.2457 0ZM17.8205 25.8813L15.6201 28.0573C13.9194 26.3851 12.871 24.0679 12.871 21.5049C12.871 16.4031 17.0698 12.2336 22.2457 12.2336C24.8374 12.2336 27.178 13.2802 28.8713 14.9524C30.572 16.6343 31.6205 18.9588 31.6205 21.5049H28.4947C28.4947 19.7986 27.7957 18.2578 26.671 17.1455H26.6537C25.5117 16.0161 23.9612 15.3248 22.2457 15.3248C18.7951 15.3248 15.9942 18.1094 15.9942 21.5049C15.9942 23.2038 16.6957 24.7519 17.8205 25.8813ZM33.1784 35.4009C33.1784 36.265 32.472 36.9489 31.6131 36.9489H19.1126C18.5957 36.9489 18.1453 36.7201 17.8623 36.3307C17.6703 36.0922 17.5448 35.7636 17.5448 35.4082V32.351C17.5448 31.4455 17.9534 30.6204 18.5957 30.0508C19.1372 29.5567 19.8706 29.2598 20.6705 29.2598V21.5122C20.6705 20.6554 21.3794 19.9641 22.2383 19.9641C23.0973 19.9641 23.8037 20.6651 23.8037 21.5122V26.1442C23.8037 25.2874 24.5125 24.5961 25.3714 24.5961C26.0704 24.5961 26.6537 25.0415 26.8531 25.6744C26.8949 25.8156 26.9294 25.9811 26.9294 26.1369V27.6874C26.9294 26.8281 27.6382 26.1369 28.4947 26.1369C29.0706 26.1369 29.5703 26.4509 29.8385 26.9109C29.9788 27.1421 30.0551 27.405 30.0551 27.6874V29.2354C30.0551 28.3786 30.7615 27.6874 31.6205 27.6874C32.0709 27.6874 32.4794 27.8748 32.7551 28.1644C33.0209 28.4444 33.1784 28.8143 33.1784 29.2184V35.4009ZM34.7462 21.5049C34.7462 18.1094 33.3384 15.0181 31.0716 12.7764C28.8122 10.5346 25.6865 9.14231 22.2457 9.14231C15.3543 9.14231 9.74524 14.6895 9.74524 21.5049C9.74524 24.9174 11.153 27.9916 13.4124 30.2407V30.2577L11.1949 32.4338C8.36942 29.6322 6.6195 25.7742 6.6195 21.5049C6.6195 12.9735 13.6192 6.05106 22.2457 6.05106C26.5627 6.05106 30.4637 7.78167 33.2965 10.576C36.122 13.3776 37.8719 17.2428 37.8719 21.5049H34.7462Z" fill="#39FFFF"/>
</g>
<defs>
<clipPath id="clip0_123_3081">
<rect width="43.4797" height="43" fill="white" transform="translate(0.505859)"/>
</clipPath>
</defs>
</svg>
