<svg width="45" height="43" viewBox="0 0 45 43" fill="none" xmlns="http://www.w3.org/2000/svg">
<g clip-path="url(#clip0_123_2793)">
<path d="M22.3268 0C10.321 0 0.586914 9.62668 0.586914 21.5C0.586914 33.3733 10.321 43 22.3268 43C34.3325 43 44.0666 33.3733 44.0666 21.5C44.0666 9.62668 34.3325 0 22.3268 0ZM9.49403 19.1073L12.2998 17.9755C12.5558 16.8972 12.9889 15.8822 13.5624 14.967L12.3859 12.2043L14.1186 10.4908L16.9146 11.6518C17.84 11.0847 18.8663 10.6587 19.9566 10.4031L21.0986 7.62833H23.5524L24.6945 10.4031C25.7872 10.6587 26.8111 11.0847 27.739 11.6518L30.5324 10.4883L32.2651 12.2019L31.0887 14.967C31.6646 15.8822 32.0953 16.8972 32.3537 17.9779L35.157 19.1073V20.6919H28.1377C28.3518 17.3645 25.6863 14.5605 22.3268 14.5605C18.9672 14.5605 16.3017 17.3645 16.5159 20.6919H9.49403V19.1073ZM33.1905 24.842C33.1905 26.1734 32.1027 27.2517 30.7564 27.2517C29.4101 27.2517 28.3223 26.1734 28.3223 24.842C28.3223 23.5105 29.4126 22.4347 30.7564 22.4347C32.1002 22.4347 33.1905 23.513 33.1905 24.842ZM25.8561 22.8363C25.8561 24.7641 24.276 26.3267 22.3268 26.3267C20.3775 26.3267 18.7949 24.7641 18.7949 22.8363C18.7949 20.9085 20.375 19.3434 22.3268 19.3434C24.2785 19.3434 25.8561 20.9061 25.8561 22.8363ZM16.3288 24.842C16.3288 26.1734 15.2385 27.2517 13.8947 27.2517C12.5508 27.2517 11.4605 26.1734 11.4605 24.842C11.4605 23.5105 12.5508 22.4347 13.8947 22.4347C15.2385 22.4347 16.3288 23.513 16.3288 24.842ZM8.9058 32.8111V31.4699C9.0264 29.8488 9.93212 28.4444 11.2513 27.6314C12.4672 28.7583 14.286 28.992 15.7529 28.1936C14.7512 29.5421 14.1974 31.1389 14.1876 32.8111H8.9058ZM29.5627 34.3981H15.0884V32.4508C15.2606 30.0995 16.5798 28.0622 18.4922 26.8817C20.6482 28.8801 24.0029 28.8801 26.1589 26.8817C28.0737 28.0622 29.3904 30.0995 29.5627 32.4508V34.3981ZM35.7453 32.8111H30.466C30.4561 31.1389 29.8999 29.5421 28.8982 28.1936C30.3651 28.992 32.1839 28.7583 33.3997 27.6314C34.719 28.4444 35.6271 29.8488 35.7453 31.4699V32.8111Z" fill="#39FFFF"/>
</g>
<defs>
<clipPath id="clip0_123_2793">
<rect width="43.4797" height="43" fill="white" transform="translate(0.586914)"/>
</clipPath>
</defs>
</svg>
