<svg width="44" height="44" viewBox="0 0 44 44" fill="none" xmlns="http://www.w3.org/2000/svg">
<g clip-path="url(#clip0_116_5900)">
<path d="M18.683 19.4203V25.4664H24.7966V19.4203H18.683ZM23.2682 23.9549H20.2114V20.9318H23.2682V23.9549Z" fill="#39FFFF"/>
<path d="M21.7399 0.943359C9.73408 0.943359 0 10.57 0 22.4434C0 34.3167 9.73408 43.9434 21.7399 43.9434C33.7456 43.9434 43.4797 34.3167 43.4797 22.4434C43.4797 10.57 33.7456 0.943359 21.7399 0.943359ZM30.3295 21.6864C30.6445 20.8077 31.4936 20.1748 32.4904 20.1748C33.7555 20.1748 34.7843 21.1923 34.7843 22.4434C34.7843 23.6945 33.7555 24.7119 32.4904 24.7119C31.4936 24.7119 30.6445 24.079 30.3295 23.2003H27.8535V26.978H33.2558V30.9382C34.1443 31.2498 34.7843 32.0919 34.7843 33.0753C34.7843 34.3264 33.7555 35.3438 32.4904 35.3438C31.2253 35.3438 30.199 34.3264 30.199 33.0753C30.199 32.0919 30.8365 31.2498 31.7274 30.9382V28.4895H26.0888V30.9382C26.9773 31.2498 27.6172 32.0919 27.6172 33.0753C27.6172 34.3264 26.5884 35.3438 25.3234 35.3438C24.0583 35.3438 23.0295 34.3264 23.0295 33.0753C23.0295 32.0919 23.6694 31.2498 24.5579 30.9382V28.4895H18.9193V30.9382C19.8103 31.2498 20.4477 32.0919 20.4477 33.0753C20.4477 34.3264 19.4189 35.3438 18.1563 35.3438C16.8937 35.3438 15.8625 34.3264 15.8625 33.0753C15.8625 32.0919 16.5024 31.2498 17.3909 30.9382V28.4895H11.7523V30.9382C12.6408 31.2498 13.2807 32.0919 13.2807 33.0753C13.2807 34.3264 12.2519 35.3438 10.9868 35.3438C9.72177 35.3438 8.69545 34.3264 8.69545 33.0753C8.69545 32.0919 9.3329 31.2498 10.2239 30.9382V26.978H15.6238V23.2003H13.1502C12.8352 24.079 11.9836 24.7119 10.9868 24.7119C9.72423 24.7119 8.69545 23.6945 8.69545 22.4434C8.69545 21.1923 9.72423 20.1748 10.9868 20.1748C11.9836 20.1748 12.8352 20.8077 13.1502 21.6864H15.6238V17.9087H10.2239V13.9485C9.3329 13.637 8.69545 12.7948 8.69545 11.8114C8.69545 10.5603 9.72423 9.54287 10.9868 9.54287C12.2494 9.54287 13.2807 10.5603 13.2807 11.8114C13.2807 12.7948 12.6408 13.637 11.7523 13.9485V16.3972H17.3909V13.9485C16.5024 13.637 15.8625 12.7948 15.8625 11.8114C15.8625 10.5603 16.8913 9.54287 18.1563 9.54287C19.4214 9.54287 20.4477 10.5603 20.4477 11.8114C20.4477 12.7948 19.8103 13.637 18.9193 13.9485V16.3972H24.5579V13.9485C23.6694 13.637 23.0295 12.7948 23.0295 11.8114C23.0295 10.5603 24.0583 9.54287 25.3234 9.54287C26.5884 9.54287 27.6172 10.5603 27.6172 11.8114C27.6172 12.7948 26.9773 13.637 26.0888 13.9485V16.3972H31.7274V13.9485C30.8365 13.637 30.199 12.7948 30.199 11.8114C30.199 10.5603 31.2278 9.54287 32.4904 9.54287C33.753 9.54287 34.7843 10.5603 34.7843 11.8114C34.7843 12.7948 34.1443 13.637 33.2558 13.9485V17.9087H27.8535V21.6864H30.3295Z" fill="#39FFFF"/>
</g>
<defs>
<clipPath id="clip0_116_5900">
<rect width="43.4797" height="43" fill="white" transform="translate(0 0.943359)"/>
</clipPath>
</defs>
</svg>
