<svg width="44" height="44" viewBox="0 0 44 44" fill="none" xmlns="http://www.w3.org/2000/svg">
<g clip-path="url(#clip0_116_8221)">
<path d="M21.8268 0.947266C9.82099 0.947266 0.0869141 10.5739 0.0869141 22.4473C0.0869141 34.3206 9.82099 43.9473 21.8268 43.9473C33.8325 43.9473 43.5666 34.3206 43.5666 22.4473C43.5666 10.5739 33.8325 0.947266 21.8268 0.947266ZM8.99403 20.0546L11.7998 18.9228C12.0558 17.8445 12.4889 16.8295 13.0624 15.9143L11.8859 13.1516L13.6186 11.438L16.4146 12.5991C17.34 12.0319 18.3663 11.606 19.4566 11.3504L20.5986 8.57559H23.0524L24.1945 11.3504C25.2872 11.606 26.3111 12.0319 27.239 12.5991L30.0324 11.4356L31.7651 13.1492L30.5887 15.9143C31.1646 16.8295 31.5953 17.8445 31.8537 18.9252L34.657 20.0546V21.6392H27.6377C27.8518 18.3118 25.1863 15.5078 21.8268 15.5078C18.4672 15.5078 15.8017 18.3118 16.0159 21.6392H8.99403V20.0546ZM32.6905 25.7892C32.6905 27.1206 31.6027 28.1989 30.2564 28.1989C28.9101 28.1989 27.8223 27.1206 27.8223 25.7892C27.8223 24.4578 28.9126 23.3819 30.2564 23.3819C31.6002 23.3819 32.6905 24.4602 32.6905 25.7892ZM25.3561 23.7836C25.3561 25.7113 23.776 27.274 21.8268 27.274C19.8775 27.274 18.2949 25.7113 18.2949 23.7836C18.2949 21.8558 19.875 20.2907 21.8268 20.2907C23.7785 20.2907 25.3561 21.8534 25.3561 23.7836ZM15.8288 25.7892C15.8288 27.1206 14.7385 28.1989 13.3947 28.1989C12.0508 28.1989 10.9605 27.1206 10.9605 25.7892C10.9605 24.4578 12.0508 23.3819 13.3947 23.3819C14.7385 23.3819 15.8288 24.4602 15.8288 25.7892ZM8.4058 33.7583V32.4171C8.5264 30.7961 9.43212 29.3916 10.7513 28.5786C11.9672 29.7056 13.786 29.9393 15.2529 29.1409C14.2512 30.4894 13.6974 32.0861 13.6876 33.7583H8.4058ZM29.0627 35.3453H14.5884V33.3981C14.7606 31.0468 16.0798 29.0095 17.9922 27.829C20.1482 29.8273 23.5029 29.8273 25.6589 27.829C27.5737 29.0095 28.8904 31.0468 29.0627 33.3981V35.3453ZM35.2453 33.7583H29.966C29.9561 32.0861 29.3999 30.4894 28.3982 29.1409C29.8651 29.9393 31.6839 29.7056 32.8997 28.5786C34.219 29.3916 35.1271 30.7961 35.2453 32.4171V33.7583Z" fill="#39FFFF"/>
</g>
<defs>
<clipPath id="clip0_116_8221">
<rect width="43.4797" height="43" fill="white" transform="translate(0.0869141 0.947266)"/>
</clipPath>
</defs>
</svg>
