<svg width="44" height="44" viewBox="0 0 44 44" fill="none" xmlns="http://www.w3.org/2000/svg">
<g clip-path="url(#clip0_116_8226)">
<path d="M21.7333 0.947266C9.72436 0.947266 -0.0078125 10.5721 -0.0078125 22.446C-0.0078125 34.32 9.72436 43.9473 21.7333 43.9473C33.7422 43.9473 43.4744 34.3225 43.4744 22.446C43.4744 10.5696 33.7397 0.947266 21.7333 0.947266ZM9.35269 17.3781C9.35269 11.8987 13.8422 7.45873 19.3802 7.45873V10.8861H20.2737C21.3567 10.8861 22.2354 11.7551 22.2354 12.8261C22.2354 13.8972 21.3567 14.7686 20.2737 14.7686H19.3802V18.1935H9.38715C9.365 17.9258 9.35269 17.6531 9.35269 17.3781ZM16.2494 26.684C15.0384 25.187 14.2557 23.3345 14.0883 21.3117H22.3068V23.0862C20.6724 23.4806 19.4541 24.9411 19.4541 26.6791C19.4541 28.4171 20.6724 29.8776 22.3068 30.272V31.8153H18.5508C18.2554 29.9458 17.4579 28.1786 16.2494 26.684ZM29.4914 37.4358H18.6763V33.5825L29.4914 33.5727V37.4358ZM31.9183 26.684C30.7098 28.1786 29.9099 29.9458 29.617 31.8153H24.0839V28.6216H23.1929C22.1074 28.6216 21.2287 27.7526 21.2287 26.6791C21.2287 25.6056 22.1074 24.7391 23.1929 24.7391H24.0839V21.3117H34.0794C33.912 23.3345 33.1293 25.187 31.9183 26.684ZM34.0794 19.5542H24.0839V16.1366H24.9749C26.0603 16.1366 26.939 15.2676 26.939 14.1966C26.939 13.1255 26.0603 12.2541 24.9749 12.2541H24.0839V8.82675C29.6268 8.82675 34.0991 13.2424 34.1114 18.7242C34.1139 19.0041 34.1016 19.2816 34.0794 19.5542Z" fill="#39FFFF"/>
</g>
<defs>
<clipPath id="clip0_116_8226">
<rect width="43.4822" height="43" fill="white" transform="translate(-0.0078125 0.947266)"/>
</clipPath>
</defs>
</svg>
