<svg width="44" height="44" viewBox="0 0 44 44" fill="none" xmlns="http://www.w3.org/2000/svg">
<g clip-path="url(#clip0_116_6180)">
<path d="M21.7399 0.443359C9.73408 0.443359 0 10.07 0 21.9434C0 33.8167 9.73408 43.4434 21.7399 43.4434C33.7456 43.4434 43.4797 33.8167 43.4797 21.9434C43.4797 10.07 33.7456 0.443359 21.7399 0.443359ZM8.90711 19.5507L11.7129 18.4188C11.9689 17.3406 12.402 16.3256 12.9755 15.4104L11.799 12.6477L13.5317 10.9341L16.3277 12.0952C17.2531 11.528 18.2794 11.1021 19.3697 10.8465L20.5117 8.07168H22.9655L24.1075 10.8465C25.2003 11.1021 26.2242 11.528 27.1521 12.0952L29.9455 10.9317L31.6782 12.6453L30.5018 15.4104C31.0777 16.3256 31.5084 17.3406 31.7668 18.4213L34.5701 19.5507V21.1353H27.5508C27.7649 17.8079 25.0994 15.0039 21.7399 15.0039C18.3803 15.0039 15.7148 17.8079 15.9289 21.1353H8.90711V19.5507ZM32.6036 25.2853C32.6036 26.6167 31.5158 27.695 30.1695 27.695C28.8232 27.695 27.7354 26.6167 27.7354 25.2853C27.7354 23.9539 28.8257 22.878 30.1695 22.878C31.5133 22.878 32.6036 23.9563 32.6036 25.2853ZM25.2692 23.2797C25.2692 25.2074 23.6891 26.7701 21.7399 26.7701C19.7906 26.7701 18.208 25.2074 18.208 23.2797C18.208 21.3519 19.7881 19.7868 21.7399 19.7868C23.6916 19.7868 25.2692 21.3494 25.2692 23.2797ZM15.7419 25.2853C15.7419 26.6167 14.6516 27.695 13.3078 27.695C11.9639 27.695 10.8736 26.6167 10.8736 25.2853C10.8736 23.9539 11.9639 22.878 13.3078 22.878C14.6516 22.878 15.7419 23.9563 15.7419 25.2853ZM8.31888 33.2544V31.9132C8.43948 30.2922 9.34521 28.8877 10.6644 28.0747C11.8803 29.2017 13.6991 29.4354 15.166 28.637C14.1643 29.9855 13.6105 31.5822 13.6006 33.2544H8.31888ZM28.9758 34.8414H14.5014V32.8942C14.6737 30.5429 15.9929 28.5056 17.9053 27.3251C20.0613 29.3234 23.4159 29.3234 25.572 27.3251C27.4868 28.5056 28.8035 30.5429 28.9758 32.8942V34.8414ZM35.1584 33.2544H29.8791C29.8692 31.5822 29.313 29.9855 28.3113 28.637C29.7782 29.4354 31.597 29.2017 32.8128 28.0747C34.132 28.8877 35.0402 30.2922 35.1584 31.9132V33.2544Z" fill="#39FFFF"/>
</g>
<defs>
<clipPath id="clip0_116_6180">
<rect width="43.4797" height="43" fill="white" transform="translate(0 0.443359)"/>
</clipPath>
</defs>
</svg>
