<svg width="45" height="44" viewBox="0 0 45 44" fill="none" xmlns="http://www.w3.org/2000/svg">
<g clip-path="url(#clip0_123_3665)">
<path d="M22.6578 0.943359C10.652 0.943359 0.917969 10.57 0.917969 22.4434C0.917969 34.3167 10.652 43.9434 22.6578 43.9434C34.6636 43.9434 44.3977 34.3191 44.3977 22.4434C44.3977 10.5676 34.6636 0.943359 22.6578 0.943359ZM18.2326 26.8247L16.0322 29.0007C14.3316 27.3285 13.2831 25.0113 13.2831 22.4482C13.2831 17.3464 17.4819 13.1769 22.6578 13.1769C25.2495 13.1769 27.5901 14.2236 29.2834 15.8958C30.9841 17.5777 32.0326 19.9022 32.0326 22.4482H28.9068C28.9068 20.742 28.2078 19.2012 27.0831 18.0888H27.0658C25.9238 16.9594 24.3733 16.2682 22.6578 16.2682C19.2072 16.2682 16.4064 19.0527 16.4064 22.4482C16.4064 24.1472 17.1078 25.6953 18.2326 26.8247ZM33.5905 36.3442C33.5905 37.2083 32.8841 37.8923 32.0252 37.8923H19.5247C19.0079 37.8923 18.5574 37.6635 18.2744 37.274C18.0824 37.0355 17.9569 36.7069 17.9569 36.3515V33.2944C17.9569 32.3889 18.3655 31.5638 19.0079 30.9942C19.5493 30.5001 20.2828 30.2031 21.0826 30.2031V22.4555C21.0826 21.5987 21.7915 20.9075 22.6504 20.9075C23.5094 20.9075 24.2158 21.6085 24.2158 22.4555V27.0875C24.2158 26.2307 24.9246 25.5395 25.7836 25.5395C26.4825 25.5395 27.0658 25.9849 27.2652 26.6178C27.307 26.7589 27.3415 26.9245 27.3415 27.0802V28.6307C27.3415 27.7715 28.0503 27.0802 28.9068 27.0802C29.4828 27.0802 29.9824 27.3942 30.2507 27.8543C30.3909 28.0855 30.4672 28.3484 30.4672 28.6307V30.1788C30.4672 29.322 31.1736 28.6307 32.0326 28.6307C32.483 28.6307 32.8915 28.8181 33.1672 29.1078C33.433 29.3877 33.5905 29.7577 33.5905 30.1617V36.3442ZM35.1583 22.4482C35.1583 19.0527 33.7505 15.9615 31.4837 13.7197C29.2243 11.4779 26.0986 10.0857 22.6578 10.0857C15.7664 10.0857 10.1573 15.6329 10.1573 22.4482C10.1573 25.8608 11.5652 28.935 13.8245 31.184V31.2011L11.607 33.3771C8.78153 30.5755 7.03161 26.7176 7.03161 22.4482C7.03161 13.9169 14.0313 6.99442 22.6578 6.99442C26.9748 6.99442 30.8758 8.72503 33.7086 11.5193C36.5341 14.3209 38.284 18.1862 38.284 22.4482H35.1583Z" fill="#39FFFF"/>
</g>
<defs>
<clipPath id="clip0_123_3665">
<rect width="43.4797" height="43" fill="white" transform="translate(0.917969 0.943359)"/>
</clipPath>
</defs>
</svg>
