<svg width="44" height="44" viewBox="0 0 44 44" fill="none" xmlns="http://www.w3.org/2000/svg">
<g clip-path="url(#clip0_2_1104)">
<path d="M18.6019 18.9768V25.023H24.6481V18.9768H18.6019ZM23.1366 23.5114H20.1135V20.4884H23.1366V23.5114Z" fill="#39FFFF"/>
<path d="M21.625 0.5C9.75168 0.5 0.125 10.1267 0.125 22C0.125 33.8733 9.75168 43.5 21.625 43.5C33.4983 43.5 43.125 33.8733 43.125 22C43.125 10.1267 33.4983 0.5 21.625 0.5ZM30.1198 21.243C30.4314 20.3643 31.2712 19.7315 32.2569 19.7315C33.508 19.7315 34.5255 20.7489 34.5255 22C34.5255 23.2511 33.508 24.2685 32.2569 24.2685C31.2712 24.2685 30.4314 23.6357 30.1198 22.757H27.6712V26.5346H33.0139V30.4948C33.8926 30.8064 34.5255 31.6486 34.5255 32.6319C34.5255 33.883 33.508 34.9005 32.2569 34.9005C31.0058 34.9005 29.9908 33.883 29.9908 32.6319C29.9908 31.6486 30.6213 30.8064 31.5024 30.4948V28.0462H25.926V30.4948C26.8047 30.8064 27.4375 31.6486 27.4375 32.6319C27.4375 33.883 26.4201 34.9005 25.169 34.9005C23.9179 34.9005 22.9004 33.883 22.9004 32.6319C22.9004 31.6486 23.5333 30.8064 24.412 30.4948V28.0462H18.8356V30.4948C19.7167 30.8064 20.3471 31.6486 20.3471 32.6319C20.3471 33.883 19.3297 34.9005 18.081 34.9005C16.8323 34.9005 15.8125 33.883 15.8125 32.6319C15.8125 31.6486 16.4453 30.8064 17.324 30.4948V28.0462H11.7476V30.4948C12.6263 30.8064 13.2592 31.6486 13.2592 32.6319C13.2592 33.883 12.2417 34.9005 10.9906 34.9005C9.73951 34.9005 8.72451 33.883 8.72451 32.6319C8.72451 31.6486 9.35493 30.8064 10.2361 30.4948V26.5346H15.5764V22.757H13.1302C12.8186 23.6357 11.9764 24.2685 10.9906 24.2685C9.74195 24.2685 8.72451 23.2511 8.72451 22C8.72451 20.7489 9.74195 19.7315 10.9906 19.7315C11.9764 19.7315 12.8186 20.3643 13.1302 21.243H15.5764V17.4654H10.2361V13.5052C9.35493 13.1936 8.72451 12.3514 8.72451 11.3681C8.72451 10.1169 9.74195 9.09951 10.9906 9.09951C12.2393 9.09951 13.2592 10.1169 13.2592 11.3681C13.2592 12.3514 12.6263 13.1936 11.7476 13.5052V15.9538H17.324V13.5052C16.4453 13.1936 15.8125 12.3514 15.8125 11.3681C15.8125 10.1169 16.8299 9.09951 18.081 9.09951C19.3321 9.09951 20.3471 10.1169 20.3471 11.3681C20.3471 12.3514 19.7167 13.1936 18.8356 13.5052V15.9538H24.412V13.5052C23.5333 13.1936 22.9004 12.3514 22.9004 11.3681C22.9004 10.1169 23.9179 9.09951 25.169 9.09951C26.4201 9.09951 27.4375 10.1169 27.4375 11.3681C27.4375 12.3514 26.8047 13.1936 25.926 13.5052V15.9538H31.5024V13.5052C30.6213 13.1936 29.9908 12.3514 29.9908 11.3681C29.9908 10.1169 31.0083 9.09951 32.2569 9.09951C33.5056 9.09951 34.5255 10.1169 34.5255 11.3681C34.5255 12.3514 33.8926 13.1936 33.0139 13.5052V17.4654H27.6712V21.243H30.1198Z" fill="#39FFFF"/>
</g>
<defs>
<clipPath id="clip0_2_1104">
<rect width="43" height="43" fill="white" transform="translate(0.125 0.5)"/>
</clipPath>
</defs>
</svg>
