<svg width="44" height="43" viewBox="0 0 44 43" fill="none" xmlns="http://www.w3.org/2000/svg">
<g clip-path="url(#clip0_116_7917)">
<path d="M21.8263 0C9.82051 0 0.0864258 9.62668 0.0864258 21.5C0.0864258 33.3733 9.82051 43 21.8263 43C33.8321 43 43.5661 33.3733 43.5661 21.5C43.5661 9.62668 33.8321 0 21.8263 0ZM16.04 34.5392C16.04 32.6334 16.9998 30.8516 18.5996 29.7904C18.6021 29.788 18.6046 29.788 18.6046 29.788C18.7547 29.6906 18.954 29.732 19.0525 29.8804L21.8263 34.0573L24.6001 29.8804L24.6025 29.8756C24.7034 29.7295 24.9053 29.6906 25.0529 29.7904C26.6527 30.8516 27.6126 32.6334 27.6126 34.5392C27.6126 37.7011 16.04 37.7011 16.04 34.5392ZM15.5723 20.8647L14.6076 20.0785C14.578 20.0566 14.5608 20.0225 14.5608 19.9885C14.5559 19.9179 14.61 19.857 14.6814 19.8521L15.9292 19.7767C15.9809 19.7743 16.0252 19.7426 16.0424 19.6939L16.5002 18.5451C16.515 18.511 16.5396 18.4842 16.5741 18.472C16.6405 18.4453 16.7168 18.4769 16.7414 18.5451L17.2017 19.6939C17.2189 19.7426 17.2632 19.7743 17.3149 19.7767L18.5627 19.8521C18.5972 19.8546 18.6316 19.8692 18.6538 19.8984C18.7005 19.9519 18.6907 20.0323 18.6366 20.0785L17.6718 20.8647C17.6324 20.8964 17.6152 20.9475 17.6275 20.9962L17.9425 22.1937C17.9499 22.2278 17.945 22.2643 17.9253 22.2959C17.8859 22.3544 17.8071 22.3714 17.7456 22.3349L16.6922 21.6704C16.6479 21.6412 16.5938 21.6412 16.5519 21.6704L15.4961 22.3349C15.4665 22.3519 15.4296 22.3592 15.3951 22.3495C15.3262 22.3324 15.2844 22.2619 15.3016 22.1937L15.6142 20.9962C15.629 20.9475 15.6117 20.8964 15.5723 20.8647ZM23.1455 18.2019C23.1553 18.2359 23.1479 18.2724 23.1307 18.3017C23.0913 18.3625 23.0101 18.3795 22.9511 18.3406L21.8952 17.6761C21.8534 17.6493 21.7992 17.6493 21.7574 17.6761L20.7015 18.3406C20.672 18.3601 20.6351 18.3674 20.6006 18.3576C20.5292 18.3406 20.4874 18.27 20.5071 18.2019L20.8196 17.0043C20.832 16.9556 20.8147 16.9045 20.7753 16.8729L19.8106 16.0867C19.7835 16.0623 19.7662 16.0307 19.7638 15.9942C19.7589 15.9236 19.8155 15.8627 19.8868 15.8579L21.1347 15.7824C21.1839 15.78 21.2282 15.7483 21.2479 15.7021L21.7057 14.5508C21.718 14.5191 21.7451 14.4924 21.7771 14.4802C21.846 14.4534 21.9198 14.4851 21.9469 14.5508L22.4047 15.7021C22.4219 15.7483 22.4662 15.78 22.5179 15.7824L23.7657 15.8579C23.8026 15.8579 23.8346 15.8773 23.8592 15.9041C23.9035 15.9601 23.8962 16.0404 23.8395 16.0867L22.8748 16.8729C22.8354 16.9045 22.8181 16.9556 22.8329 17.0043L23.1455 18.2019ZM19.9361 22.7803C20.4185 22.3008 21.0879 22.0063 21.8263 22.0063C23.303 22.0063 24.4992 23.1892 24.4992 24.6497C24.4992 26.1101 23.303 27.2955 21.8263 27.2955C20.3496 27.2955 19.1509 26.1101 19.1509 24.6497C19.1509 23.9194 19.4512 23.2598 19.9361 22.7803ZM22.6631 31.1583L21.8263 32.4192L20.987 31.1583L21.1175 30.2017C21.0412 30.1482 20.9845 30.0727 20.955 29.9827L20.7557 29.3693C20.7409 29.3279 20.7335 29.2817 20.7335 29.2379C20.7335 29.0042 20.9255 28.8168 21.1593 28.8192H22.4933C22.5376 28.8168 22.5843 28.8241 22.6262 28.8387C22.8501 28.9117 22.9707 29.1478 22.8969 29.3693L22.6951 29.9827C22.668 30.0703 22.6114 30.1482 22.5351 30.1993L22.6631 31.1583ZM28.3509 22.1937C28.3583 22.2278 28.3509 22.2643 28.3337 22.2959C28.2968 22.3544 28.2156 22.3714 28.154 22.3349L27.1006 21.6704C27.0588 21.6412 27.0022 21.6412 26.9604 21.6704L25.907 22.3349C25.875 22.3519 25.838 22.3592 25.8036 22.3495C25.7347 22.3324 25.6928 22.2619 25.7101 22.1937L26.0251 20.9962C26.0374 20.9475 26.0202 20.8964 25.9808 20.8647L25.016 20.0785C24.9889 20.0566 24.9717 20.0225 24.9692 19.9885C24.9643 19.9179 25.0185 19.857 25.0898 19.8521L26.3377 19.7767C26.3894 19.7743 26.4337 19.7426 26.4509 19.6939L26.9087 18.5451C26.9234 18.511 26.9505 18.4842 26.9825 18.472C27.049 18.4453 27.1253 18.4769 27.1523 18.5451L27.6101 19.6939C27.6273 19.7426 27.6716 19.7743 27.7233 19.7767L28.9712 19.8521C29.0056 19.8546 29.0401 19.8692 29.0622 19.8984C29.109 19.9519 29.1016 20.0323 29.045 20.0785L28.0802 20.8647C28.0408 20.8964 28.0236 20.9475 28.0384 20.9962L28.3509 22.1937ZM36.3843 24.0533C34.3071 24.0533 32.9313 25.7377 32.9313 27.4902C32.9313 28.3275 33.2438 29.1819 33.9453 29.8756C34.3464 30.2699 34.3464 30.9125 33.9453 31.3068L31.7425 33.4853C31.3438 33.882 30.694 33.882 30.2953 33.4853C29.7341 32.9206 28.9909 32.5701 28.1934 32.4971C27.8021 31.2995 27.0711 30.2383 26.0916 29.4375C29.0598 27.8772 30.9155 24.8249 30.9131 21.5C30.9131 16.537 26.8447 12.5135 21.8238 12.5135C16.803 12.5135 12.737 16.5394 12.7395 21.5024C12.7395 24.8249 14.5928 27.8772 17.561 29.4375C16.5814 30.2383 15.8505 31.2995 15.4591 32.4946C14.6617 32.5701 13.916 32.9206 13.3573 33.4853C12.9561 33.882 12.3088 33.882 11.9101 33.4853L9.70483 31.3068C9.30611 30.9101 9.30611 30.2699 9.70483 29.8756C10.4063 29.1819 10.7213 28.3275 10.7213 27.4902C10.7213 25.7377 9.34303 24.0533 7.26823 24.0533C6.70215 24.0533 6.24437 23.5982 6.24437 23.0408V19.9592C6.24437 19.3994 6.70215 18.9467 7.26823 18.9467C9.34303 18.9467 10.7213 17.2623 10.7213 15.5074C10.7213 14.67 10.4063 13.8181 9.70483 13.1244C9.30611 12.7277 9.30611 12.0875 9.70483 11.6908L11.9101 9.51228C12.3088 9.11797 12.9585 9.11797 13.3573 9.51228C14.0587 10.206 14.9226 10.5175 15.7692 10.5175C17.5413 10.5175 19.2445 9.15448 19.2445 7.10014C19.2445 6.54274 19.7023 6.09 20.2683 6.09H23.3842C23.9503 6.09 24.4081 6.54274 24.4081 7.10014C24.4081 9.15448 26.1112 10.5175 27.8833 10.5175C28.73 10.5175 29.5939 10.206 30.2953 9.51228C30.694 9.11797 31.3438 9.11797 31.7425 9.51228L33.9477 11.6932C34.3464 12.0875 34.3464 12.7277 33.9477 13.1244C31.7769 15.2688 33.3177 18.9467 36.3843 18.9467C36.9504 18.9467 37.4082 19.3994 37.4082 19.9592V23.0408C37.4082 23.6006 36.9504 24.0533 36.3843 24.0533Z" fill="#39FFFF"/>
</g>
<defs>
<clipPath id="clip0_116_7917">
<rect width="43.4797" height="43" fill="white" transform="translate(0.0864258)"/>
</clipPath>
</defs>
</svg>
