<svg width="44" height="43" viewBox="0 0 44 43" fill="none" xmlns="http://www.w3.org/2000/svg">
<g clip-path="url(#clip0_116_7923)">
<path d="M21.9513 0C9.94551 0 0.211426 9.62668 0.211426 21.5C0.211426 33.3733 9.94551 43 21.9513 43C33.9571 43 43.6911 33.3757 43.6911 21.5C43.6911 9.62425 33.9571 0 21.9513 0ZM17.526 25.8813L15.3257 28.0573C13.625 26.3851 12.5765 24.0679 12.5765 21.5049C12.5765 16.4031 16.7754 12.2336 21.9513 12.2336C24.5429 12.2336 26.8835 13.2802 28.5769 14.9524C30.2775 16.6343 31.326 18.9588 31.326 21.5049H28.2003C28.2003 19.7986 27.5013 18.2578 26.3765 17.1455H26.3593C25.2173 16.0161 23.6667 15.3248 21.9513 15.3248C18.5007 15.3248 15.6998 18.1094 15.6998 21.5049C15.6998 23.2038 16.4013 24.7519 17.526 25.8813ZM32.884 35.4009C32.884 36.265 32.1776 36.9489 31.3186 36.9489H18.8182C18.3013 36.9489 17.8509 36.7201 17.5679 36.3307C17.3759 36.0922 17.2504 35.7636 17.2504 35.4082V32.351C17.2504 31.4455 17.6589 30.6204 18.3013 30.0508C18.8428 29.5567 19.5762 29.2598 20.3761 29.2598V21.5122C20.3761 20.6554 21.0849 19.9641 21.9439 19.9641C22.8029 19.9641 23.5092 20.6651 23.5092 21.5122V26.1442C23.5092 25.2874 24.2181 24.5961 25.077 24.5961C25.776 24.5961 26.3593 25.0415 26.5587 25.6744C26.6005 25.8156 26.635 25.9811 26.635 26.1369V27.6874C26.635 26.8281 27.3438 26.1369 28.2003 26.1369C28.7762 26.1369 29.2758 26.4509 29.5441 26.9109C29.6844 27.1421 29.7607 27.405 29.7607 27.6874V29.2354C29.7607 28.3786 30.4671 27.6874 31.326 27.6874C31.7764 27.6874 32.185 27.8748 32.4606 28.1644C32.7264 28.4444 32.884 28.8143 32.884 29.2184V35.4009ZM34.4518 21.5049C34.4518 18.1094 33.0439 15.0181 30.7772 12.7764C28.5178 10.5346 25.392 9.14231 21.9513 9.14231C15.0599 9.14231 9.4508 14.6895 9.4508 21.5049C9.4508 24.9174 10.8586 27.9916 13.118 30.2407V30.2577L10.9005 32.4338C8.07499 29.6322 6.32507 25.7742 6.32507 21.5049C6.32507 12.9735 13.3247 6.05106 21.9513 6.05106C26.2682 6.05106 30.1693 7.78167 33.0021 10.576C35.8276 13.3776 37.5775 17.2428 37.5775 21.5049H34.4518Z" fill="#39FFFF"/>
</g>
<defs>
<clipPath id="clip0_116_7923">
<rect width="43.4797" height="43" fill="white" transform="translate(0.211426)"/>
</clipPath>
</defs>
</svg>
