<svg width="44" height="43" viewBox="0 0 44 43" fill="none" xmlns="http://www.w3.org/2000/svg">
<g clip-path="url(#clip0_42_569)">
<path d="M18.9768 18.4768V24.523H25.023V18.4768H18.9768ZM23.5114 23.0114H20.4884V19.9884H23.5114V23.0114Z" fill="#39FFFF"/>
<path d="M22 0C10.1267 0 0.5 9.62668 0.5 21.5C0.5 33.3733 10.1267 43 22 43C33.8733 43 43.5 33.3733 43.5 21.5C43.5 9.62668 33.8733 0 22 0ZM30.4948 20.743C30.8064 19.8643 31.6462 19.2315 32.6319 19.2315C33.883 19.2315 34.9005 20.2489 34.9005 21.5C34.9005 22.7511 33.883 23.7685 32.6319 23.7685C31.6462 23.7685 30.8064 23.1357 30.4948 22.257H28.0462V26.0346H33.3889V29.9948C34.2676 30.3064 34.9005 31.1486 34.9005 32.1319C34.9005 33.383 33.883 34.4005 32.6319 34.4005C31.3808 34.4005 30.3658 33.383 30.3658 32.1319C30.3658 31.1486 30.9963 30.3064 31.8774 29.9948V27.5462H26.301V29.9948C27.1797 30.3064 27.8125 31.1486 27.8125 32.1319C27.8125 33.383 26.7951 34.4005 25.544 34.4005C24.2929 34.4005 23.2754 33.383 23.2754 32.1319C23.2754 31.1486 23.9083 30.3064 24.787 29.9948V27.5462H19.2106V29.9948C20.0917 30.3064 20.7221 31.1486 20.7221 32.1319C20.7221 33.383 19.7047 34.4005 18.456 34.4005C17.2073 34.4005 16.1875 33.383 16.1875 32.1319C16.1875 31.1486 16.8203 30.3064 17.699 29.9948V27.5462H12.1226V29.9948C13.0013 30.3064 13.6342 31.1486 13.6342 32.1319C13.6342 33.383 12.6167 34.4005 11.3656 34.4005C10.1145 34.4005 9.09951 33.383 9.09951 32.1319C9.09951 31.1486 9.72993 30.3064 10.6111 29.9948V26.0346H15.9514V22.257H13.5052C13.1936 23.1357 12.3514 23.7685 11.3656 23.7685C10.1169 23.7685 9.09951 22.7511 9.09951 21.5C9.09951 20.2489 10.1169 19.2315 11.3656 19.2315C12.3514 19.2315 13.1936 19.8643 13.5052 20.743H15.9514V16.9654H10.6111V13.0052C9.72993 12.6936 9.09951 11.8514 9.09951 10.8681C9.09951 9.61695 10.1169 8.59951 11.3656 8.59951C12.6143 8.59951 13.6342 9.61695 13.6342 10.8681C13.6342 11.8514 13.0013 12.6936 12.1226 13.0052V15.4538H17.699V13.0052C16.8203 12.6936 16.1875 11.8514 16.1875 10.8681C16.1875 9.61695 17.2049 8.59951 18.456 8.59951C19.7071 8.59951 20.7221 9.61695 20.7221 10.8681C20.7221 11.8514 20.0917 12.6936 19.2106 13.0052V15.4538H24.787V13.0052C23.9083 12.6936 23.2754 11.8514 23.2754 10.8681C23.2754 9.61695 24.2929 8.59951 25.544 8.59951C26.7951 8.59951 27.8125 9.61695 27.8125 10.8681C27.8125 11.8514 27.1797 12.6936 26.301 13.0052V15.4538H31.8774V13.0052C30.9963 12.6936 30.3658 11.8514 30.3658 10.8681C30.3658 9.61695 31.3833 8.59951 32.6319 8.59951C33.8806 8.59951 34.9005 9.61695 34.9005 10.8681C34.9005 11.8514 34.2676 12.6936 33.3889 13.0052V16.9654H28.0462V20.743H30.4948Z" fill="#39FFFF"/>
</g>
<defs>
<clipPath id="clip0_42_569">
<rect width="43" height="43" fill="white" transform="translate(0.5)"/>
</clipPath>
</defs>
</svg>
