<svg width="44" height="43" viewBox="0 0 44 43" fill="none" xmlns="http://www.w3.org/2000/svg">
<g clip-path="url(#clip0_2_1094)">
<path d="M21.75 0C9.87668 0 0.25 9.62668 0.25 21.5C0.25 33.3733 9.87668 43 21.75 43C33.6233 43 43.25 33.3733 43.25 21.5C43.25 9.62668 33.6233 0 21.75 0ZM9.05884 19.1073L11.8337 17.9755C12.0868 16.8972 12.5152 15.8822 13.0823 14.967L11.9189 12.2043L13.6324 10.4908L16.3975 11.6518C17.3127 11.0847 18.3277 10.6587 19.406 10.4031L20.5354 7.62833H22.9622L24.0916 10.4031C25.1723 10.6587 26.1848 11.0847 27.1025 11.6518L29.8651 10.4883L31.5787 12.2019L30.4152 14.967C30.9848 15.8822 31.4108 16.8972 31.6663 17.9779L34.4387 19.1073V20.6919H27.4968C27.7086 17.3645 25.0725 14.5605 21.75 14.5605C18.4275 14.5605 15.7914 17.3645 16.0032 20.6919H9.05884V19.1073ZM32.4939 24.842C32.4939 26.1734 31.4181 27.2517 30.0866 27.2517C28.7552 27.2517 27.6794 26.1734 27.6794 24.842C27.6794 23.5105 28.7576 22.4347 30.0866 22.4347C31.4156 22.4347 32.4939 23.513 32.4939 24.842ZM25.2404 22.8363C25.2404 24.7641 23.6778 26.3267 21.75 26.3267C19.8222 26.3267 18.2571 24.7641 18.2571 22.8363C18.2571 20.9085 19.8198 19.3434 21.75 19.3434C23.6802 19.3434 25.2404 20.9061 25.2404 22.8363ZM15.8182 24.842C15.8182 26.1734 14.7399 27.2517 13.4109 27.2517C12.0819 27.2517 11.0037 26.1734 11.0037 24.842C11.0037 23.5105 12.0819 22.4347 13.4109 22.4347C14.7399 22.4347 15.8182 23.513 15.8182 24.842ZM8.4771 32.8111V31.4699C8.59637 29.8488 9.4921 28.4444 10.7968 27.6314C11.9992 28.7583 13.7979 28.992 15.2486 28.1936C14.258 29.5421 13.7103 31.1389 13.7006 32.8111H8.4771ZM28.9061 34.3981H14.5914V32.4508C14.7618 30.0995 16.0665 28.0622 17.9577 26.8817C20.09 28.8801 23.4076 28.8801 25.5398 26.8817C27.4335 28.0622 28.7357 30.0995 28.9061 32.4508V34.3981ZM35.0205 32.8111H29.7994C29.7897 31.1389 29.2396 29.5421 28.2489 28.1936C29.6996 28.992 31.4984 28.7583 32.7008 27.6314C34.0055 28.4444 34.9036 29.8488 35.0205 31.4699V32.8111Z" fill="#39FFFF"/>
</g>
<defs>
<clipPath id="clip0_2_1094">
<rect width="43" height="43" fill="white" transform="translate(0.25)"/>
</clipPath>
</defs>
</svg>
