<svg width="45" height="44" viewBox="0 0 45 44" fill="none" xmlns="http://www.w3.org/2000/svg">
<g clip-path="url(#clip0_116_5884)">
<path d="M22.657 0.943359C10.6512 0.943359 0.917114 10.57 0.917114 22.4434C0.917114 34.3167 10.6512 43.9434 22.657 43.9434C34.6627 43.9434 44.3968 34.3191 44.3968 22.4434C44.3968 10.5676 34.6627 0.943359 22.657 0.943359ZM18.2317 26.8247L16.0314 29.0007C14.3307 27.3285 13.2822 25.0113 13.2822 22.4482C13.2822 17.3464 17.481 13.1769 22.657 13.1769C25.2486 13.1769 27.5892 14.2236 29.2825 15.8958C30.9832 17.5777 32.0317 19.9022 32.0317 22.4482H28.906C28.906 20.742 28.207 19.2012 27.0822 18.0888H27.065C25.923 16.9594 24.3724 16.2682 22.657 16.2682C19.2064 16.2682 16.4055 19.0527 16.4055 22.4482C16.4055 24.1472 17.1069 25.6953 18.2317 26.8247ZM33.5897 36.3442C33.5897 37.2083 32.8833 37.8923 32.0243 37.8923H19.5238C19.007 37.8923 18.5566 37.6635 18.2736 37.274C18.0816 37.0355 17.9561 36.7069 17.9561 36.3515V33.2944C17.9561 32.3889 18.3646 31.5638 19.007 30.9942C19.5485 30.5001 20.2819 30.2031 21.0818 30.2031V22.4555C21.0818 21.5987 21.7906 20.9075 22.6496 20.9075C23.5085 20.9075 24.2149 21.6085 24.2149 22.4555V27.0875C24.2149 26.2307 24.9237 25.5395 25.7827 25.5395C26.4817 25.5395 27.065 25.9849 27.2644 26.6178C27.3062 26.7589 27.3406 26.9245 27.3406 27.0802V28.6307C27.3406 27.7715 28.0495 27.0802 28.906 27.0802C29.4819 27.0802 29.9815 27.3942 30.2498 27.8543C30.3901 28.0855 30.4664 28.3484 30.4664 28.6307V30.1788C30.4664 29.322 31.1727 28.6307 32.0317 28.6307C32.4821 28.6307 32.8907 28.8181 33.1663 29.1078C33.4321 29.3877 33.5897 29.7577 33.5897 30.1617V36.3442ZM35.1574 22.4482C35.1574 19.0527 33.7496 15.9615 31.4829 13.7197C29.2235 11.4779 26.0977 10.0857 22.657 10.0857C15.7656 10.0857 10.1565 15.6329 10.1565 22.4482C10.1565 25.8608 11.5643 28.935 13.8237 31.184V31.2011L11.6061 33.3771C8.78068 30.5755 7.03076 26.7176 7.03076 22.4482C7.03076 13.9169 14.0304 6.99442 22.657 6.99442C26.9739 6.99442 30.8749 8.72503 33.7078 11.5193C36.5333 14.3209 38.2832 18.1862 38.2832 22.4482H35.1574Z" fill="#39FFFF"/>
</g>
<defs>
<clipPath id="clip0_116_5884">
<rect width="43.4797" height="43" fill="white" transform="translate(0.917114 0.943359)"/>
</clipPath>
</defs>
</svg>
