<svg width="45" height="44" viewBox="0 0 45 44" fill="none" xmlns="http://www.w3.org/2000/svg">
<g clip-path="url(#clip0_123_3968)">
<path d="M22.7245 0.443359C10.7156 0.443359 0.983398 10.0682 0.983398 21.9421C0.983398 33.8161 10.7156 43.4434 22.7245 43.4434C34.7334 43.4434 44.4656 33.8186 44.4656 21.9421C44.4656 10.0657 34.7309 0.443359 22.7245 0.443359ZM10.3439 16.8742C10.3439 11.3948 14.8334 6.95482 20.3714 6.95482V10.3822H21.2649C22.3479 10.3822 23.2266 11.2512 23.2266 12.3222C23.2266 13.3933 22.3479 14.2647 21.2649 14.2647H20.3714V17.6896H10.3784C10.3562 17.4218 10.3439 17.1492 10.3439 16.8742ZM17.2406 26.1801C16.0296 24.683 15.2469 22.8306 15.0795 20.8078H23.298V22.5823C21.6636 22.9767 20.4453 24.4372 20.4453 26.1752C20.4453 27.9132 21.6636 29.3737 23.298 29.7681V31.3113H19.542C19.2466 29.4419 18.4491 27.6747 17.2406 26.1801ZM30.4827 36.9319H19.6675V33.0786L30.4827 33.0688V36.9319ZM32.9095 26.1801C31.701 27.6747 30.9011 29.4419 30.6082 31.3113H25.0751V28.1177H24.1841C23.0986 28.1177 22.2199 27.2487 22.2199 26.1752C22.2199 25.1017 23.0986 24.2352 24.1841 24.2352H25.0751V20.8078H35.0706C34.9032 22.8306 34.1205 24.683 32.9095 26.1801ZM35.0706 19.0503H25.0751V15.6327H25.9661C27.0515 15.6327 27.9302 14.7637 27.9302 13.6927C27.9302 12.6216 27.0515 11.7502 25.9661 11.7502H25.0751V8.32284C30.618 8.32284 35.0903 12.7385 35.1026 18.2203C35.1051 18.5002 35.0928 18.7777 35.0706 19.0503Z" fill="#39FFFF"/>
</g>
<defs>
<clipPath id="clip0_123_3968">
<rect width="43.4822" height="43" fill="white" transform="translate(0.983398 0.443359)"/>
</clipPath>
</defs>
</svg>
