<svg width="44" height="44" viewBox="0 0 44 44" fill="none" xmlns="http://www.w3.org/2000/svg">
<g clip-path="url(#clip0_123_2504)">
<path d="M22.2333 0.443359C10.2244 0.443359 0.492188 10.0682 0.492188 21.9421C0.492188 33.8161 10.2244 43.4434 22.2333 43.4434C34.2422 43.4434 43.9744 33.8186 43.9744 21.9421C43.9744 10.0657 34.2397 0.443359 22.2333 0.443359ZM9.85269 16.8742C9.85269 11.3948 14.3422 6.95482 19.8802 6.95482V10.3822H20.7737C21.8567 10.3822 22.7354 11.2512 22.7354 12.3222C22.7354 13.3933 21.8567 14.2647 20.7737 14.2647H19.8802V17.6896H9.88715C9.865 17.4218 9.85269 17.1492 9.85269 16.8742ZM16.7494 26.1801C15.5384 24.683 14.7557 22.8306 14.5883 20.8078H22.8068V22.5823C21.1724 22.9767 19.9541 24.4372 19.9541 26.1752C19.9541 27.9132 21.1724 29.3737 22.8068 29.7681V31.3113H19.0508C18.7554 29.4419 17.9579 27.6747 16.7494 26.1801ZM29.9914 36.9319H19.1763V33.0786L29.9914 33.0688V36.9319ZM32.4183 26.1801C31.2098 27.6747 30.4099 29.4419 30.117 31.3113H24.5839V28.1177H23.6929C22.6074 28.1177 21.7287 27.2487 21.7287 26.1752C21.7287 25.1017 22.6074 24.2352 23.6929 24.2352H24.5839V20.8078H34.5794C34.412 22.8306 33.6293 24.683 32.4183 26.1801ZM34.5794 19.0503H24.5839V15.6327H25.4749C26.5603 15.6327 27.439 14.7637 27.439 13.6927C27.439 12.6216 26.5603 11.7502 25.4749 11.7502H24.5839V8.32284C30.1268 8.32284 34.5991 12.7385 34.6114 18.2203C34.6139 18.5002 34.6016 18.7777 34.5794 19.0503Z" fill="#39FFFF"/>
</g>
<defs>
<clipPath id="clip0_123_2504">
<rect width="43.4822" height="43" fill="white" transform="translate(0.492188 0.443359)"/>
</clipPath>
</defs>
</svg>
