<svg width="45" height="43" viewBox="0 0 45 43" fill="none" xmlns="http://www.w3.org/2000/svg">
<g clip-path="url(#clip0_123_2781)">
<path d="M22.3268 0C10.321 0 0.586914 9.62668 0.586914 21.5C0.586914 33.3733 10.321 43 22.3268 43C34.3325 43 44.0666 33.3733 44.0666 21.5C44.0666 9.62668 34.3325 0 22.3268 0ZM16.5405 34.5392C16.5405 32.6334 17.5003 30.8516 19.1001 29.7904C19.1026 29.788 19.105 29.788 19.105 29.788C19.2552 29.6906 19.4545 29.732 19.553 29.8804L22.3268 34.0573L25.1005 29.8804L25.103 29.8756C25.2039 29.7295 25.4057 29.6906 25.5534 29.7904C27.1532 30.8516 28.1131 32.6334 28.1131 34.5392C28.1131 37.7011 16.5405 37.7011 16.5405 34.5392ZM16.0728 20.8647L15.108 20.0785C15.0785 20.0566 15.0613 20.0225 15.0613 19.9885C15.0564 19.9179 15.1105 19.857 15.1819 19.8521L16.4297 19.7767C16.4814 19.7743 16.5257 19.7426 16.5429 19.6939L17.0007 18.5451C17.0155 18.511 17.0401 18.4842 17.0745 18.472C17.141 18.4453 17.2173 18.4769 17.2419 18.5451L17.7022 19.6939C17.7194 19.7426 17.7637 19.7743 17.8154 19.7767L19.0632 19.8521C19.0977 19.8546 19.1321 19.8692 19.1543 19.8984C19.201 19.9519 19.1912 20.0323 19.137 20.0785L18.1722 20.8647C18.1329 20.8964 18.1156 20.9475 18.1279 20.9962L18.443 22.1937C18.4504 22.2278 18.4454 22.2643 18.4258 22.2959C18.3864 22.3544 18.3076 22.3714 18.2461 22.3349L17.1927 21.6704C17.1484 21.6412 17.0942 21.6412 17.0524 21.6704L15.9965 22.3349C15.967 22.3519 15.9301 22.3592 15.8956 22.3495C15.8267 22.3324 15.7849 22.2619 15.8021 22.1937L16.1147 20.9962C16.1294 20.9475 16.1122 20.8964 16.0728 20.8647ZM23.646 18.2019C23.6558 18.2359 23.6484 18.2724 23.6312 18.3017C23.5918 18.3625 23.5106 18.3795 23.4515 18.3406L22.3957 17.6761C22.3538 17.6493 22.2997 17.6493 22.2579 17.6761L21.202 18.3406C21.1725 18.3601 21.1355 18.3674 21.1011 18.3576C21.0297 18.3406 20.9879 18.27 21.0076 18.2019L21.3201 17.0043C21.3324 16.9556 21.3152 16.9045 21.2758 16.8729L20.311 16.0867C20.284 16.0623 20.2667 16.0307 20.2643 15.9942C20.2594 15.9236 20.316 15.8627 20.3873 15.8579L21.6352 15.7824C21.6844 15.78 21.7287 15.7483 21.7484 15.7021L22.2062 14.5508C22.2185 14.5191 22.2455 14.4924 22.2775 14.4802C22.3465 14.4534 22.4203 14.4851 22.4474 14.5508L22.9052 15.7021C22.9224 15.7483 22.9667 15.78 23.0184 15.7824L24.2662 15.8579C24.3031 15.8579 24.3351 15.8773 24.3597 15.9041C24.404 15.9601 24.3966 16.0404 24.34 16.0867L23.3752 16.8729C23.3359 16.9045 23.3186 16.9556 23.3334 17.0043L23.646 18.2019ZM20.4366 22.7803C20.919 22.3008 21.5884 22.0063 22.3268 22.0063C23.8035 22.0063 24.9996 23.1892 24.9996 24.6497C24.9996 26.1101 23.8035 27.2955 22.3268 27.2955C20.85 27.2955 19.6514 26.1101 19.6514 24.6497C19.6514 23.9194 19.9517 23.2598 20.4366 22.7803ZM23.1636 31.1583L22.3268 32.4192L21.4875 31.1583L21.6179 30.2017C21.5416 30.1482 21.485 30.0727 21.4555 29.9827L21.2561 29.3693C21.2414 29.3279 21.234 29.2817 21.234 29.2379C21.234 29.0042 21.426 28.8168 21.6598 28.8192H22.9938C23.0381 28.8168 23.0848 28.8241 23.1267 28.8387C23.3506 28.9117 23.4712 29.1478 23.3974 29.3693L23.1956 29.9827C23.1685 30.0703 23.1119 30.1482 23.0356 30.1993L23.1636 31.1583ZM28.8514 22.1937C28.8588 22.2278 28.8514 22.2643 28.8342 22.2959C28.7973 22.3544 28.7161 22.3714 28.6545 22.3349L27.6011 21.6704C27.5593 21.6412 27.5027 21.6412 27.4608 21.6704L26.4075 22.3349C26.3755 22.3519 26.3385 22.3592 26.3041 22.3495C26.2352 22.3324 26.1933 22.2619 26.2106 22.1937L26.5256 20.9962C26.5379 20.9475 26.5207 20.8964 26.4813 20.8647L25.5165 20.0785C25.4894 20.0566 25.4722 20.0225 25.4697 19.9885C25.4648 19.9179 25.519 19.857 25.5903 19.8521L26.8382 19.7767C26.8898 19.7743 26.9342 19.7426 26.9514 19.6939L27.4092 18.5451C27.4239 18.511 27.451 18.4842 27.483 18.472C27.5495 18.4453 27.6257 18.4769 27.6528 18.5451L28.1106 19.6939C28.1278 19.7426 28.1721 19.7743 28.2238 19.7767L29.4717 19.8521C29.5061 19.8546 29.5406 19.8692 29.5627 19.8984C29.6095 19.9519 29.6021 20.0323 29.5455 20.0785L28.5807 20.8647C28.5413 20.8964 28.5241 20.9475 28.5389 20.9962L28.8514 22.1937ZM36.8848 24.0533C34.8076 24.0533 33.4317 25.7377 33.4317 27.4902C33.4317 28.3275 33.7443 29.1819 34.4458 29.8756C34.8469 30.2699 34.8469 30.9125 34.4458 31.3068L32.243 33.4853C31.8443 33.882 31.1945 33.882 30.7958 33.4853C30.2346 32.9206 29.4913 32.5701 28.6939 32.4971C28.3026 31.2995 27.5716 30.2383 26.592 29.4375C29.5603 27.8772 31.416 24.8249 31.4135 21.5C31.4135 16.537 27.3452 12.5135 22.3243 12.5135C17.3034 12.5135 13.2375 16.5394 13.24 21.5024C13.24 24.8249 15.0933 27.8772 18.0615 29.4375C17.0819 30.2383 16.351 31.2995 15.9596 32.4946C15.1622 32.5701 14.4164 32.9206 13.8577 33.4853C13.4566 33.882 12.8093 33.882 12.4106 33.4853L10.2053 31.3068C9.8066 30.9101 9.8066 30.2699 10.2053 29.8756C10.9068 29.1819 11.2218 28.3275 11.2218 27.4902C11.2218 25.7377 9.84352 24.0533 7.76872 24.0533C7.20264 24.0533 6.74486 23.5982 6.74486 23.0408V19.9592C6.74486 19.3994 7.20264 18.9467 7.76872 18.9467C9.84352 18.9467 11.2218 17.2623 11.2218 15.5074C11.2218 14.67 10.9068 13.8181 10.2053 13.1244C9.8066 12.7277 9.8066 12.0875 10.2053 11.6908L12.4106 9.51228C12.8093 9.11797 13.459 9.11797 13.8577 9.51228C14.5592 10.206 15.4231 10.5175 16.2697 10.5175C18.0418 10.5175 19.745 9.15448 19.745 7.10014C19.745 6.54274 20.2027 6.09 20.7688 6.09H23.8847C24.4508 6.09 24.9086 6.54274 24.9086 7.10014C24.9086 9.15448 26.6117 10.5175 28.3838 10.5175C29.2305 10.5175 30.0943 10.206 30.7958 9.51228C31.1945 9.11797 31.8443 9.11797 32.243 9.51228L34.4482 11.6932C34.8469 12.0875 34.8469 12.7277 34.4482 13.1244C32.2774 15.2688 33.8181 18.9467 36.8848 18.9467C37.4509 18.9467 37.9087 19.3994 37.9087 19.9592V23.0408C37.9087 23.6006 37.4509 24.0533 36.8848 24.0533Z" fill="#39FFFF"/>
</g>
<defs>
<clipPath id="clip0_123_2781">
<rect width="43.4797" height="43" fill="white" transform="translate(0.586914)"/>
</clipPath>
</defs>
</svg>
