<svg width="40" height="40" viewBox="0 0 40 40" fill="none" xmlns="http://www.w3.org/2000/svg">
<path fill-rule="evenodd" clip-rule="evenodd" d="M29.133 29.1335C29.6212 28.6453 29.6212 27.8538 29.133 27.3657L12.6339 10.8665C12.1457 10.3784 11.3543 10.3784 10.8661 10.8665C10.378 11.3547 10.378 12.1462 10.8661 12.6343L27.3653 29.1335C27.8534 29.6216 28.6449 29.6216 29.133 29.1335Z" fill="#3B444C"/>
<path fill-rule="evenodd" clip-rule="evenodd" d="M29.1508 10.8839C28.6627 10.3957 27.8712 10.3957 27.383 10.8839L10.8839 27.3831C10.3957 27.8712 10.3957 28.6627 10.8839 29.1508C11.372 29.639 12.1635 29.639 12.6517 29.1508L29.1508 12.6517C29.639 12.1635 29.639 11.372 29.1508 10.8839Z" fill="#3B444C"/>
</svg>
