<svg width="40" height="40" viewBox="0 0 40 40" fill="none" xmlns="http://www.w3.org/2000/svg">
<path fill-rule="evenodd" clip-rule="evenodd" d="M32.9168 20C32.9168 19.3097 32.3572 18.75 31.6668 18.75H8.3335C7.64315 18.75 7.0835 19.3097 7.0835 20C7.0835 20.6903 7.64315 21.25 8.3335 21.25H31.6668C32.3572 21.25 32.9168 20.6903 32.9168 20Z" fill="#3B444C"/>
<path fill-rule="evenodd" clip-rule="evenodd" d="M32.9168 11.6667C32.9168 10.9763 32.3572 10.4167 31.6668 10.4167H8.3335C7.64315 10.4167 7.0835 10.9763 7.0835 11.6667C7.0835 12.357 7.64315 12.9167 8.3335 12.9167H31.6668C32.3572 12.9167 32.9168 12.357 32.9168 11.6667Z" fill="#3B444C"/>
<path fill-rule="evenodd" clip-rule="evenodd" d="M32.9168 28.3333C32.9168 27.643 32.3572 27.0833 31.6668 27.0833H8.3335C7.64315 27.0833 7.0835 27.643 7.0835 28.3333C7.0835 29.0237 7.64315 29.5833 8.3335 29.5833H31.6668C32.3572 29.5833 32.9168 29.0237 32.9168 28.3333Z" fill="#3B444C"/>
</svg>
