<svg width="33" height="33" viewBox="0 0 33 33" fill="none" xmlns="http://www.w3.org/2000/svg">
<g clip-path="url(#clip0_192_4143)">
<path d="M15.5117 5.72583V2.72583C15.5117 2.46061 15.6171 2.20626 15.8046 2.01872C15.9921 1.83119 16.2465 1.72583 16.5117 1.72583C16.7769 1.72583 17.0313 1.83119 17.2188 2.01872C17.4064 2.20626 17.5117 2.46061 17.5117 2.72583V5.72583C17.5117 5.99105 17.4064 6.2454 17.2188 6.43294C17.0313 6.62047 16.7769 6.72583 16.5117 6.72583C16.2465 6.72583 15.9921 6.62047 15.8046 6.43294C15.6171 6.2454 15.5117 5.99105 15.5117 5.72583ZM16.5117 8.72583C14.9295 8.72583 13.3828 9.19502 12.0672 10.0741C10.7516 10.9531 9.72618 12.2026 9.12068 13.6644C8.51518 15.1262 8.35675 16.7347 8.66544 18.2866C8.97412 19.8384 9.73604 21.2639 10.8549 22.3827C11.9737 23.5015 13.3991 24.2634 14.951 24.5721C16.5028 24.8808 18.1114 24.7224 19.5732 24.1169C21.035 23.5114 22.2844 22.486 23.1635 21.1704C24.0425 19.8548 24.5117 18.3081 24.5117 16.7258C24.5094 14.6048 23.6658 12.5713 22.166 11.0715C20.6662 9.57174 18.6327 8.72815 16.5117 8.72583ZM7.80422 9.43333C7.99186 9.62097 8.24635 9.72639 8.51172 9.72639C8.77708 9.72639 9.03158 9.62097 9.21922 9.43333C9.40686 9.24569 9.51227 8.99119 9.51227 8.72583C9.51227 8.46047 9.40686 8.20597 9.21922 8.01833L7.21922 6.01833C7.03158 5.83069 6.77708 5.72527 6.51172 5.72527C6.24635 5.72527 5.99186 5.83069 5.80422 6.01833C5.61658 6.20597 5.51116 6.46047 5.51116 6.72583C5.51116 6.99119 5.61658 7.24569 5.80422 7.43333L7.80422 9.43333ZM7.80422 24.0183L5.80422 26.0183C5.61658 26.206 5.51116 26.4605 5.51116 26.7258C5.51116 26.9912 5.61658 27.2457 5.80422 27.4333C5.99186 27.621 6.24635 27.7264 6.51172 27.7264C6.77708 27.7264 7.03158 27.621 7.21922 27.4333L9.21922 25.4333C9.31213 25.3404 9.38583 25.2301 9.43611 25.1087C9.4864 24.9873 9.51227 24.8572 9.51227 24.7258C9.51227 24.5944 9.4864 24.4643 9.43611 24.3429C9.38583 24.2215 9.31213 24.1112 9.21922 24.0183C9.12631 23.9254 9.01601 23.8517 8.89462 23.8014C8.77322 23.7512 8.64311 23.7253 8.51172 23.7253C8.38032 23.7253 8.25022 23.7512 8.12882 23.8014C8.00743 23.8517 7.89713 23.9254 7.80422 24.0183ZM24.5117 9.72583C24.6431 9.72593 24.7732 9.70015 24.8946 9.64997C25.016 9.59978 25.1263 9.52616 25.2192 9.43333L27.2192 7.43333C27.4069 7.24569 27.5123 6.99119 27.5123 6.72583C27.5123 6.46047 27.4069 6.20597 27.2192 6.01833C27.0316 5.83069 26.7771 5.72527 26.5117 5.72527C26.2464 5.72527 25.9919 5.83069 25.8042 6.01833L23.8042 8.01833C23.6642 8.15819 23.5688 8.33644 23.5302 8.53052C23.4915 8.72461 23.5113 8.9258 23.5871 9.10862C23.6628 9.29144 23.7911 9.44768 23.9557 9.55755C24.1203 9.66742 24.3138 9.72599 24.5117 9.72583ZM25.2192 24.0183C25.0316 23.8307 24.7771 23.7253 24.5117 23.7253C24.2464 23.7253 23.9919 23.8307 23.8042 24.0183C23.6166 24.206 23.5112 24.4605 23.5112 24.7258C23.5112 24.9912 23.6166 25.2457 23.8042 25.4333L25.8042 27.4333C25.8971 27.5262 26.0074 27.5999 26.1288 27.6502C26.2502 27.7005 26.3803 27.7264 26.5117 27.7264C26.6431 27.7264 26.7732 27.7005 26.8946 27.6502C27.016 27.5999 27.1263 27.5262 27.2192 27.4333C27.3121 27.3404 27.3858 27.2301 27.4361 27.1087C27.4864 26.9873 27.5123 26.8572 27.5123 26.7258C27.5123 26.5944 27.4864 26.4643 27.4361 26.3429C27.3858 26.2215 27.3121 26.1112 27.2192 26.0183L25.2192 24.0183ZM6.51172 16.7258C6.51172 16.4606 6.40636 16.2063 6.21883 16.0187C6.03129 15.8312 5.77694 15.7258 5.51172 15.7258H2.51172C2.2465 15.7258 1.99215 15.8312 1.80461 16.0187C1.61708 16.2063 1.51172 16.4606 1.51172 16.7258C1.51172 16.991 1.61708 17.2454 1.80461 17.4329C1.99215 17.6205 2.2465 17.7258 2.51172 17.7258H5.51172C5.77694 17.7258 6.03129 17.6205 6.21883 17.4329C6.40636 17.2454 6.51172 16.991 6.51172 16.7258ZM16.5117 26.7258C16.2465 26.7258 15.9921 26.8312 15.8046 27.0187C15.6171 27.2063 15.5117 27.4606 15.5117 27.7258V30.7258C15.5117 30.991 15.6171 31.2454 15.8046 31.4329C15.9921 31.6205 16.2465 31.7258 16.5117 31.7258C16.7769 31.7258 17.0313 31.6205 17.2188 31.4329C17.4064 31.2454 17.5117 30.991 17.5117 30.7258V27.7258C17.5117 27.4606 17.4064 27.2063 17.2188 27.0187C17.0313 26.8312 16.7769 26.7258 16.5117 26.7258ZM30.5117 15.7258H27.5117C27.2465 15.7258 26.9921 15.8312 26.8046 16.0187C26.6171 16.2063 26.5117 16.4606 26.5117 16.7258C26.5117 16.991 26.6171 17.2454 26.8046 17.4329C26.9921 17.6205 27.2465 17.7258 27.5117 17.7258H30.5117C30.7769 17.7258 31.0313 17.6205 31.2188 17.4329C31.4064 17.2454 31.5117 16.991 31.5117 16.7258C31.5117 16.4606 31.4064 16.2063 31.2188 16.0187C31.0313 15.8312 30.7769 15.7258 30.5117 15.7258Z" fill="#FFCF5E"/>
</g>
<defs>
<clipPath id="clip0_192_4143">
<rect width="32" height="32" fill="white" transform="translate(0.511719 0.72583)"/>
</clipPath>
</defs>
</svg>
